<svg width="28" height="28" viewBox="0 0 28 28" fill="none" xmlns="http://www.w3.org/2000/svg">
<path d="M19.25 8.74996V8.76163M4.66669 9.33329C4.66669 8.09562 5.15835 6.90863 6.03352 6.03346C6.90869 5.15829 8.09568 4.66663 9.33335 4.66663H18.6667C19.9044 4.66663 21.0913 5.15829 21.9665 6.03346C22.8417 6.90863 23.3334 8.09562 23.3334 9.33329V18.6666C23.3334 19.9043 22.8417 21.0913 21.9665 21.9665C21.0913 22.8416 19.9044 23.3333 18.6667 23.3333H9.33335C8.09568 23.3333 6.90869 22.8416 6.03352 21.9665C5.15835 21.0913 4.66669 19.9043 4.66669 18.6666V9.33329ZM10.5 14C10.5 14.9282 10.8688 15.8185 11.5251 16.4748C12.1815 17.1312 13.0718 17.5 14 17.5C14.9283 17.5 15.8185 17.1312 16.4749 16.4748C17.1313 15.8185 17.5 14.9282 17.5 14C17.5 13.0717 17.1313 12.1815 16.4749 11.5251C15.8185 10.8687 14.9283 10.5 14 10.5C13.0718 10.5 12.1815 10.8687 11.5251 11.5251C10.8688 12.1815 10.5 13.0717 10.5 14Z" stroke="currentColor" stroke-width="1.5" stroke-linecap="round" stroke-linejoin="round"/>
</svg>
