<?xml version="1.0" encoding="utf-8"?>
<!-- Generator: Adobe Illustrator 25.2.2, SVG Export Plug-In . SVG Version: 6.00 Build 0)  -->
<svg version="1.1" id="Layer_1" xmlns="http://www.w3.org/2000/svg" xmlns:xlink="http://www.w3.org/1999/xlink" x="0px" y="0px"
	 viewBox="0 0 1287.5 966" style="enable-background:new 0 0 1287.5 966;" xml:space="preserve">
<style type="text/css">
	.st0{fill:#003D79;}
	.st1{fill:#4CB2CF;}
</style>
<path class="st0" d="M787,964.8c-6.8-1.5-15-4.4-17.5-6.2c-1.8-1.3-1.8-1.6,0.5-9c1.3-4.1,2.7-7.7,3-7.9s2.9,0.7,5.7,2.1
	c17.6,8.4,40.2,7.7,51.3-1.5c7.3-6,11.9-19.1,12-34v-7.3l-5,5.1c-13.2,13.4-35.5,16.1-53.4,6.4c-33.5-18-34.1-78.7-1-99.8
	c9-5.8,16.4-7.6,28.4-7.2c9.5,0.3,11.2,0.6,17.2,3.6c4.2,2.1,8,4.9,11.2,8.3l4.6,5.1v-4.5c0-2.5,0.2-5.1,0.6-7.6l0.7-3.1h17.5
	l-0.5,55.3c-0.5,60.7-0.9,65.9-6.4,77.8c-5.6,12.1-17,20.8-32.1,24.4C816.2,966.5,795,966.5,787,964.8z M822.4,899.5
	c6.5-2.2,12.2-7.7,15.8-15.1l3.3-6.7v-16.5c-0.1-15.1-0.3-16.9-2.4-21.8c-3.1-6.9-11.3-14.4-17.8-16.3c-11.8-3.4-23-0.3-31.2,8.7
	c-7.1,7.7-9.3,14.1-9.9,28.4c-0.3,9.9-0.1,12.4,1.8,17.9C788.4,897.2,804.5,905.7,822.4,899.5z M503.4,920.1
	c-18.7-1.8-33-11.3-40.8-26.9c-13.4-27.2-4.9-65.5,17.7-80.1c8.8-5.7,16.8-7.9,28.8-7.9c19.6,0,32.1,7.4,40.3,23.7
	c3.8,7.6,5.6,16.4,5.6,27.6v9.7h-78.3l0.6,5.9c1.5,17.5,14.3,29.8,33,31.7c7.6,0.8,21.4-0.9,29.3-3.6c1.9-0.8,3.9-1.4,5.9-1.8
	c0.4,0.5,3.5,13.7,3.5,14.7c0,0.5-2.8,1.9-6.2,3C531.5,919.7,516.1,921.3,503.4,920.1z M534.6,846c-1.4-10.4-6.2-18.2-13.9-22.4
	c-4.5-2.5-6.3-2.9-13.2-2.9s-8.7,0.4-13.3,2.9c-3.1,1.8-5.9,4-8.3,6.7c-3.3,4.2-7.4,12.8-8.4,17.7l-0.7,3.2h58.5L534.6,846z
	 M934.4,920.1c-18.7-1.8-33-11.3-40.8-26.9c-13.4-27.2-4.9-65.5,17.7-80.1c8.8-5.7,16.8-7.9,28.8-7.9c19.6,0,32.1,7.4,40.3,23.7
	c3.8,7.6,5.6,16.4,5.6,27.6v9.7h-78.3l0.6,5.9c1.5,17.5,14.3,29.8,33,31.7c7.6,0.8,21.4-0.9,29.3-3.6c1.9-0.8,3.9-1.4,5.9-1.8
	c0.4,0.5,3.5,13.7,3.5,14.7c0,0.5-2.8,1.9-6.2,3C962.5,919.7,947.1,921.3,934.4,920.1z M965.6,846c-1.4-10.4-6.2-18.2-13.9-22.4
	c-4.5-2.5-6.3-2.9-13.2-2.9s-8.7,0.4-13.3,2.9c-3.1,1.8-5.9,4-8.3,6.7c-3.3,4.2-7.4,12.8-8.4,17.7l-0.7,3.2h58.5L965.6,846z
	 M119,918.7c-8.1-2-15.3-5.3-14.7-6.8c0.2-0.6,1.4-4.2,2.6-7.9s2.7-6.8,3.2-6.8c1.6,0.5,3.2,1.1,4.7,1.9c10.2,5.2,24.9,6.8,33,3.6
	c10.3-4.1,13.3-15.7,6.3-23.8c-1.6-1.8-5.8-4.5-9.3-6.1c-19.6-9-24.7-11.8-28.7-15.6c-6.1-5.9-8.1-10.9-8.1-20.2
	c0-6.7,0.4-8.4,3.3-13.9c6.1-11.9,18-18,35.3-18c10,0,16.3,1.1,23.6,4.3c3.7,1.6,4.7,2.5,4.3,3.7c-0.4,0.9-1.6,4.4-2.8,7.9
	c-1.7,4.7-2.6,6.1-3.7,5.5c-21.2-9.5-40-5.4-40,8.7c0,7.5,5.1,12,20.5,18c15,5.9,23.2,12.1,27.1,20.5c3.4,7.1,3.4,19.9,0,27
	c-3,6.5-11.1,13.8-18.4,16.6S127.8,921,119,918.7z M225.6,918.7c-4.9-1.6-9-4.8-11.8-9.1c-5.2-7.5-5.8-12.4-5.8-51.1v-35.3h-17v-17
	h16.9l0.3-13.2l0.3-13.2l8-2.2c12.6-3.5,11.5-4.8,11.5,13.1v15.5h29v17h-29.2l0.4,33.8c0.5,36.6,0.7,38,6.3,43.2
	c2.4,2.3,3.5,2.5,11.8,2.5h9.2l0.3,7.7l0.3,7.7l-3.8,1C246.8,920.6,230.3,920.4,225.6,918.7z M290.4,918.2
	c-7.3-2.9-13.2-8.4-16.5-15.5c-3-6.1-3.1-6.8-2.7-16.2c0.3-8.5,0.8-10.5,3.3-15.1c7.9-14.5,25.5-22.7,51.2-23.9l12.2-0.6l-0.6-5.1
	c-1.5-14-9.9-20.9-25.2-20.8c-7.7,0-15.4,1.7-22.4,4.9c-3.4,1.5-6.1,2.2-6.6,1.7c-1-1.1-4.1-10.2-4.1-12.1s9-6.1,17.8-8.4
	s26.5-2.7,33.4-0.8c11.4,3,20.9,11.3,24.9,21.7c2.1,5.4,2.3,7.8,3,42.2c0.4,20.1,1,39.1,1.4,42.3l0.7,5.7h-18.9l-0.7-3.1
	c-0.4-2.2-0.6-4.4-0.6-6.6V905l-4.7,4.3c-3.5,2.8-7.3,5.3-11.3,7.3c-5.9,2.8-7.6,3.1-17.5,3.3C297.4,920.2,294.6,919.9,290.4,918.2z
	 M323.6,901.4c5.4-3,9.7-7.6,12.3-13.2c1.7-3.7,2.1-6.6,2.1-15.8v-11.3l-6.2,0.6c-14.4,1.3-16.6,1.7-22.4,3.6
	c-7,2.3-13.4,7.3-15.8,12.3c-3.5,7.4-0.9,19.1,5.3,23.5C304.8,905.3,315.7,905.5,323.6,901.4z M411.6,918.7c-4.9-1.6-9-4.8-11.8-9.1
	c-5.2-7.5-5.8-12.4-5.8-51.1v-35.3h-17v-17h16.9l0.3-13.2l0.3-13.2l8-2.2c12.6-3.5,11.5-4.8,11.5,13.1v15.5h29v17h-29.2l0.4,33.8
	c0.5,36.6,0.7,38,6.3,43.2c2.4,2.3,3.5,2.5,11.8,2.5h9.2l0.3,7.7l0.3,7.7l-3.8,1C432.8,920.6,416.3,920.4,411.6,918.7z
	 M1159.6,918.7c-4.9-1.6-9-4.8-11.8-9.1c-5.2-7.5-5.8-12.4-5.8-51.1v-35.3h-17v-17h16.9l0.3-13.2l0.3-13.2l8-2.2
	c12.6-3.5,11.5-4.8,11.5,13.1v15.5h29v17h-29.2l0.4,33.8c0.5,36.6,0.7,38,6.3,43.2c2.4,2.3,3.5,2.5,11.8,2.5h9.2l0.3,7.7l0.3,7.7
	l-3.8,1C1180.8,920.6,1164.3,920.4,1159.6,918.7z M1220,918.7c-8.1-2-15.3-5.3-14.7-6.8c0.2-0.6,1.4-4.2,2.6-7.9s2.7-6.8,3.2-6.8
	c1.6,0.5,3.2,1.1,4.7,1.9c10.2,5.2,24.9,6.8,33,3.6c10.3-4.1,13.3-15.7,6.3-23.8c-1.6-1.8-5.8-4.5-9.3-6.1
	c-19.6-9-24.7-11.8-28.7-15.6c-6.1-5.9-8.1-10.9-8.1-20.2c0-6.7,0.4-8.4,3.3-13.9c6.1-11.9,18-18,35.3-18c10,0,16.3,1.1,23.6,4.3
	c3.7,1.6,4.7,2.5,4.3,3.7c-0.4,0.9-1.6,4.4-2.8,7.9c-1.7,4.7-2.6,6.1-3.7,5.5c-21.2-9.5-40-5.4-40,8.7c0,7.5,5.1,12,20.5,18
	c15,5.9,23.2,12.1,27.1,20.5c3.4,7.1,3.4,19.9,0,27c-3,6.5-11.1,13.8-18.4,16.6S1228.8,921,1220,918.7z M0,840.7v-77.5h84v17H20v49
	h61v17H20v55h68v17H0V840.7z M618,917.3c0-0.8,49.7-147.8,51.5-152.3c0.6-1.6,2.2-1.8,13.4-1.8h12.6l26,76.1
	c14.3,41.8,26.1,76.7,26.3,77.5c0.3,1.2-1.5,1.4-11,1.2l-11.3-0.3l-8.1-24l-8.1-24l-27-0.3l-26.9-0.2l-8,24.5l-7.9,24.5h-10.7
	C622.8,918.2,618,917.8,618,917.3z M696.9,830c-4.4-12.8-9.5-28.7-11.4-35.3l-3.3-12l-1.1,4.5c-2.4,9-6.3,21.3-13.6,43.1
	c-4.1,12.2-7.5,22.4-7.5,22.6s10.1,0.3,22.5,0.3h22.4L696.9,830z M1010,865c0-29.3-0.3-54.3-0.6-55.5c-0.6-2.3-0.5-2.3,8.9-2.3
	c10.9,0,10.6-0.3,10.7,11c0.1,6,0.2,6.3,1.5,4.5c4.4-5.7,10-10.5,16.4-13.8c6.3-3.1,7.1-3.2,18.6-3.2c11.1,0,12.4,0.2,17.7,2.8
	c7.5,3.7,13.6,9.9,17.3,17.4c4.7,9.8,5.4,17.4,5.5,56.6v35.7h-21V888c0-41.2-1.4-51.3-8.3-58.6c-5.6-6-15.3-8.3-24-5.8
	c-8.2,2.4-13.6,6.9-17.7,15l-3.5,6.9l-0.3,36.3l-0.4,36.4H1010L1010,865z"/>
<path class="st0" d="M769.5,673.7c-0.5-0.2-3.7-1.1-7-2c-5.8-1.7-13.9-5.1-16-6.7c-6.4-4.9-13.5-11-13.5-11.6
	c-0.5-1.2-1.3-2.3-2.3-3.2c-7.3-8-10.9-19-11.4-34.2c-0.3-10.3,0-12.6,2.2-19.3c1.1-3.7,2.6-7.2,4.5-10.5c0.8-1,1.5-2.2,2-3.4
	c0-0.8,0.8-1.9,6.2-8c5.5-6.3,16.9-13.8,25.5-16.7l6.8-2.3l81-0.6c82.3-0.6,98.7-1.3,128.5-5.1c51-6.4,80.5-16.5,110.1-37.7
	c12.3-9,23.6-19.2,33.7-30.6c8.3-9.5,17.2-21.7,17.2-23.6c0-0.5,0.3-1,0.8-1.2c1-0.4,10.2-16.7,10.2-18.1c0.4-1.5,1.2-3,2.1-4.3
	c1.1-1.9,1.8-3.4,1.5-3.4s0.3-1.9,1.5-4.1c0.9-1.9,1.7-3.8,2.4-5.8c0.2-0.9,1.7-5.9,3.4-11.1s3.1-10.1,3.1-11s0.9-5.5,2-10.5
	c3.3-15.3,4.5-29.1,4.5-53c0-23.2-1.2-37.3-4.3-51.5c-0.9-4.1-1.7-8.4-1.8-9.5c-0.4-2.4-1.1-4.7-1.9-7c-0.8-2.4-1.5-4.9-2.1-7.4
	c-0.5-1.8-1.1-3.5-1.9-5.2c-0.7-1.2-1.2-2.5-1.5-3.9c0-3.7-17.7-37.5-20.9-40c-2.1-2.4-4-4.9-5.8-7.5c-13.7-18.5-44.4-43-68.8-54.9
	s-64.2-20.7-113.5-25c-47.6-4.2-67.9-4.9-158.2-5.4L699,118v80.1c0,70.9-0.2,80.6-1.6,83.9c-0.8,1.8-1.4,3.7-2,5.6
	c-0.8,4-7.2,13.4-13.4,19.7c-4,4.2-8.8,7.6-14,10.1c-13,6.1-13.6,6.3-27.5,6.3c-11.9,0-13.6-0.3-20.2-2.8c-9.1-3.5-17.3-8.9-24-16
	c-2.9-3.2-5-5.7-4.6-5.7s-0.1-0.8-0.9-1.7c-1.8-2-5.8-9.7-6.3-12.2c-0.2-0.9-1.1-4.1-1.9-7.1c-1.4-4.8-1.6-19.9-1.6-115.8
	c0-122-0.3-116.2,6.4-130.1c4-8.4,16.7-21.4,25.1-25.7c13.6-6.9,4.7-6.6,149-6.1C891.1,0.8,901.8,1.1,948,4.8
	c41.9,3.3,84.2,10.1,111.5,18c31.2,8.9,49.1,16.3,69.6,28.6c4.6,2.7,9.8,5.8,11.4,6.8c14.9,8.6,39.7,28.2,55.8,43.9
	c9.5,9.2,26.6,28.7,31.7,36.1c1.2,1.7,2.4,3.4,3.8,5c4.3,4.7,14.7,22.4,22.3,38c2.8,5.8,5.9,12.2,7,14.2c0.7,1.3,1.3,2.6,1.8,4
	c0.4,1.4,0.9,2.9,1.5,4.2c0.7,1.5,1.2,3.1,1.6,4.7c0.4,1.8,1.1,3.5,1.9,5.1c2.1,4.8,4.9,13.1,5.5,16.5c0.3,1.2,1.1,4.6,2,7.5
	c2.4,8.5,5.3,21.1,5.4,23.3c0,1.1,1,6.6,2.1,12.1s2,11.2,1.9,12.5c0.2,4.5,0.6,9,1.3,13.4c1.9,14.9,1.9,59.1,0,75
	c-0.8,6.6-1.4,12.4-1.2,13c0.6,2.3-6.2,36.4-9.6,48.5c-0.9,3-1.7,6.2-1.8,7c-0.2,2.3-6.1,19.6-9.1,27c-0.8,1.9-1.5,3.8-1.4,4.3
	c-0.7,2.1-1.6,4.1-2.6,6c-1.4,2.8-3.3,6.8-4.1,8.7c-3.2,7.2-5.8,12.5-6.5,13c-0.9,1.2-1.7,2.6-2.3,4c-0.8,1.9-2.1,4.4-2.7,5.5
	c-2.4,3.8-3.5,6-3.6,6.8c-0.6,1.1-1.3,2-2.2,2.9c-1,1-1.7,2.2-2,3.5c0,0.7-0.4,1.3-1,1.3s-1,0.7-1,1.5s-0.3,1.5-0.7,1.5
	s-2.1,2.3-3.8,5s-3.3,5-3.7,5s-0.8,0.7-0.8,1.5s-0.4,1.5-0.8,1.5s-2.7,2.7-5.1,6.1c-2.1,3.1-4.5,6-7.2,8.6c-1.6,1.5-2.9,3-2.9,3.4
	c0,1.3-22.9,23.9-33,32.6c-15.5,13.4-43,32.4-54.9,37.9c-1.7,0.7-3.4,1.8-4.8,3c-0.6,0.7-1.5,1.2-2.4,1.4c-2.4,0.8-4.8,1.7-7.1,2.9
	c-41,19.1-87.9,29.5-153.3,34.1c-36.5,2.6-52.9,3-116.5,2.9C800.9,674.1,770.1,673.9,769.5,673.7z"/>
<path id="layer102" class="st1" d="M567.5,672.8c-0.5-0.2-4.4-0.9-8.5-1.6c-18.3-3-39.1-12.1-52.5-23c-6.8-5.5-23.8-23.4-28.7-30.2
	c-2.9-4-5.5-7.5-5.8-7.8c-1.3-1.7-2.4-3.4-3.5-5.2c-1.7-2.7-3.3-4.8-3.7-4.8s-0.8-0.7-0.8-1.5s-0.3-1.5-0.8-1.5s-1.8-1.8-3.2-4
	s-2.8-4-3.3-4s-0.6-0.4-0.2-0.9c0.3-0.6,0.1-1.3-0.5-1.6c-0.6-0.3-2.9-3.4-5.2-6.8c-1.5-2.3-3.1-4.6-4.8-6.7c-1.6-2-3.1-4.2-4.4-6.4
	c-1.6-2.6-3.3-5-5.2-7.3c-1.1-1.4-2.2-2.8-3.1-4.3c-0.9-1.7-2.1-3-2.6-3s-0.6-0.4-0.2-0.9c0.3-0.7,0-1.5-0.7-1.8
	c-0.7-0.4-2.7-2.8-4.3-5.3c-1.1-1.7-2.2-3.4-3.5-5c-0.7-0.8-1.3-1.6-1.8-2.5c-0.7-1.1-2.2-3.5-3.3-5.2s-2.5-3.3-3-3.3
	s-0.9-0.7-0.9-1.5c-0.2-1.3-0.9-2.4-1.8-3.3c-1.5-1.7-2.9-3.6-4.1-5.5c-1-1.8-2.2-3.4-3.5-5c-0.6-0.6-2.7-3.6-4.6-6.4
	s-3.7-5.3-4.2-5.3s-0.8-0.5-0.8-1.1c0-1.1-5-8.2-6.2-8.7c-0.5-0.3-0.8-0.9-0.8-1.5c0-1.1-2.5-4.6-6.4-8.9c-0.9-1-1.5-2-1.3-2.3
	c-0.3-0.9-0.8-1.8-1.5-2.5c-1.5-1.8-2.9-3.8-4.2-5.8c-1.2-2-2.6-3.8-4.1-5.5c-0.9-1-1.3-1.7-0.8-1.7s0.3-0.4-0.3-0.8
	c-1.7-1.8-3.1-3.7-4.4-5.7c-1.9-2.7-3.7-5.2-4-5.5c-0.6-0.6-1-1.2-1.3-2c-0.4-0.8-2.6-4-4.8-7s-5.8-8.2-8-11.5
	c-1.5-2.2-3-4.4-4.7-6.5c-1.4-1.6-2.6-3.4-3.7-5.2c-1.7-2.7-3.3-4.8-3.7-4.8s-0.8-0.7-0.8-1.5s-0.4-1.5-0.8-1.5s-1.8-1.8-3.1-4
	s-2.5-4-2.9-4s-1.2-0.8-1.7-1.9c-1.5-2.7-8.7-13.5-9.4-14.1c-1.5-1.8-2.8-3.7-4.1-5.7c-1.8-2.9-3.6-5.3-3.9-5.3s-1.9-2.3-3.6-5
	s-3.3-5-3.7-5c-0.5-0.1-0.8-0.5-0.8-1c0-1.3-6.2-10-7.2-10c-0.3,0-0.6-0.2-0.6-0.5c0-0.1,0-0.2,0.1-0.3c0.2-0.9-3.4-6.1-6.1-8.8
	c-0.6-0.6-1.1-1.3-1.4-2.1c-0.1-1-2.9-5.4-4.5-7.1c-1.1-1.3-2.1-2.7-3-4.2c-0.9-1.7-2.1-3-2.6-3s-0.6-0.4-0.2-0.9
	c0.3-0.7,0-1.5-0.7-1.8c-0.7-0.4-2.7-2.8-4.3-5.3c-1.1-1.7-2.3-3.3-3.7-4.8c-0.5-0.2-0.8-0.7-0.8-1.3c0-0.8-5.1-8-7-9.9
	c-0.5-0.7-1-1.4-1.5-2.1c-3.2-5.3-8.9-13.4-10.1-14.6c-1.5-1.8-2.9-3.8-4-5.9c-1.4-2.4-3-4.4-3.5-4.4c-0.5-0.1-1-0.5-0.9-1.1
	c0,0,0,0,0,0c0-1.1-5-8.2-6.2-8.7c-0.5-0.3-0.8-0.9-0.8-1.5c0-1.1-2.5-4.5-6.3-8.9c-0.9-0.9-1.3-1.8-1.1-2.1s-0.6-1.5-1.9-2.9
	c-1.7-1.9-3.2-4-4.6-6.2c-1.1-1.7-2.2-3.3-3.5-4.9c-0.6-0.6-2.9-4-5.1-7.4s-4.3-6.3-4.7-6.3s-0.8-0.4-0.8-1c0-0.9-1.9-3.5-4.7-6.5
	c-0.7-0.7-0.9-1.5-0.6-1.9s-0.2-0.8-1.1-1.2s-1.6-1-1.6-1.5c0-1.1-7-11.1-8.5-12.1c-0.6-0.5-0.6-0.8,0-0.8s0.3-0.6-0.5-1.3
	c-1.7-1.8-3.2-3.7-4.5-5.7c-1-1.7-2.3-3.4-3.7-4.8c-0.5-0.2-0.8-1-0.8-1.8s-0.4-1.4-0.8-1.4s-1.8-1.8-3.1-4s-2.5-4-2.9-4
	s-1.2-0.8-1.7-1.9c-1.7-3.1-8.6-13.3-10.1-14.8c-1.5-1.8-2.9-3.8-4-5.9c-1.4-2.4-2.9-4.4-3.2-4.4s-2-2.3-3.7-5c-1.7-2.7-3.3-5-3.7-5
	s-0.8-0.7-0.8-1.5c0-0.8-0.4-1.5-0.8-1.5s-1.8-1.8-3.1-4c-1.3-2.2-2.7-4-3.2-4s-0.8-0.4-0.5-0.8c0.3-0.4-0.3-1.8-1.3-2.9
	c-1.6-1.9-3.1-3.8-4.4-5.9c-1.4-2.2-2.9-4.3-4.6-6.3l-2.1-2.4l-0.2,256.9l-0.3,256.9l-2.8,6.3c-1.6,3.6-3.4,7.1-5.5,10.4
	c-1.5,2.3-3.1,4.8-3.6,5.7s-4,4.2-7.7,7.4C84,673,58.5,676.3,37.2,666c-6.5-3-10.2-5.7-16.5-11.9c-4.4-4.3-7.7-7.9-7.2-7.9
	s0.1-0.8-0.7-1.7c-2.4-2.9-6.5-12.4-7.7-18.1C4.3,622.5,4,550.8,4,363.9C4,145.8,4.3,105.4,5.5,98c1.1-7.8,3.3-15.5,6.4-22.8
	c0.7-1.4,1.1-2.8,1.3-4.3c-0.1-0.5,0.7-2.2,1.9-3.8c1-1.3,1.8-2.8,2.3-4.4c0.3-1.2,0.9-2.3,1.7-3.2c1.4-1.8,2.7-3.8,3.9-5.8
	c4.1-6.9,15.7-20,23.2-26.2C62.1,14.4,77.1,6.9,96.6,2.2c12.3-2.9,41.5-2.9,53.7,0c15.8,3.8,27.7,8.9,40.2,17.3
	c6.4,4.3,22.6,18.3,22,18.9c-0.3,0.2,1.5,2.3,3.9,4.6c3,3,5.7,6.3,8.2,9.7c2,3,4.1,5.5,4.6,5.5c0.5,0.1,0.8,0.5,0.8,1
	c0,0.9,6.7,11.1,9.2,14c1.6,1.9,3,3.9,4.3,6c1.2,1.9,2.5,3.8,4,5.5c1.6,2,3,4.1,4.4,6.3c1.8,2.8,3.7,5.2,4.3,5.2s0.6,0.5,0.3,1
	s-0.3,1,0.2,1s2.4,2.5,4.3,5.5s3.8,5.5,4.3,5.5s0.7,0.7,0.7,1.5s0.3,1.5,0.8,1.5s1.8,1.8,3.2,4s2.8,4,3.2,4s0.8,0.5,0.8,1.1
	c0,1,2.8,4.9,6.5,9.2c0.8,0.9,1.4,1.9,1.3,2.2c-0.1,0.3,0.7,1.7,2,3.2c2.2,2.7,4,5.3,13.1,18.4c2.5,3.5,4.7,6.6,5.1,6.9
	s2.2,2.8,4,5.5c1.8,2.7,3.7,5.2,4.2,5.3c0.5,0.4,0.8,1.1,0.8,1.8c0,0.8,0.3,1.4,0.8,1.4s1.8,1.8,3.2,4c1.4,2.2,2.8,4,3.2,4
	s0.7,0.4,0.5,0.9c-0.2,0.8,2.7,5.1,10.3,15.1c1.4,1.9,4.1,5.8,6,8.5s3.7,5.2,4,5.5s2.1,2.8,4,5.5s3.7,5.2,4,5.5s2.4,3.2,4.5,6.5
	s4.3,6.5,5,7c1.5,1.8,2.8,3.7,4,5.7c1.7,2.7,3.3,4.8,3.8,4.8s0.7,0.5,0.7,1.1c0,1.1,6,9.2,7.3,9.7c0.5,0.4,0.7,0.9,0.7,1.5
	c0,0.7,1,2.4,2.3,3.9c5.1,6.1,5.7,6.8,5.1,6.8c-0.4,0,0.9,1.9,2.8,4.3s4.7,6.2,6.3,8.7c1.2,1.9,2.5,3.7,3.9,5.5
	c1.5,1.7,2.9,3.6,4.1,5.5c1.7,2.5,3.3,4.7,3.8,4.8c0.5,0.5,0.8,1.1,0.7,1.8c0,0.8,0.3,1.4,0.8,1.4s1.8,1.8,3.2,4s2.8,4,3.2,4
	s0.8,0.6,0.8,1.4c0,0.7,0.3,1.4,0.8,1.8c1.6,1.7,3,3.6,4.2,5.6c1.8,2.8,3.7,5.2,4.2,5.2s0.8,0.5,0.8,1.1c0,1,1.6,3.3,6.2,9
	c2.2,2.8,4.1,5.7,5.9,8.7c1.2,1.7,2.5,3.2,3.1,3.2c0.3,0,0.5,0.1,0.5,0.4c0,0.1,0,0.3-0.1,0.4c-0.3,0.5,0.7,2.4,2.2,4.3
	s3.9,5.1,5.2,7.1s2.8,3.8,3.3,3.8s0.7,0.6,0.7,1.4s0.3,1.6,0.8,1.8c1.4,1.5,2.6,3.1,3.6,4.8c1.2,1.9,2.6,3.8,4.1,5.5
	c1.6,2,3.1,4.1,4.5,6.3c1.8,2.8,3.7,5.2,4.2,5.2c0.5,0,0.8,0.4,0.8,0.9c0,0.9,6.5,10.5,15.2,22.5c2.1,2.8,5.4,7.6,7.5,10.6
	c1.4,2.3,3,4.4,4.7,6.5c1.6,2,3.1,4.1,4.5,6.3c1.8,2.8,3.7,5.2,4.3,5.2s0.7,0.4,0.4,0.9c-0.3,0.3-0.3,0.9,0,1.2c0,0,0.1,0.1,0.2,0.1
	c0.4,0.1,2.3,2.6,4.2,5.3c1.2,1.9,2.6,3.8,4,5.5c0.3,0.3,2.2,2.8,4,5.5s3.7,5.2,4.2,5.3c0.5,0.4,0.8,1.1,0.8,1.8
	c0,0.8,0.4,1.4,0.8,1.4s1.8,1.8,3.1,4s2.6,4,3.2,4s0.9,0.6,0.9,1.4c0,1.3,2,4.1,6.3,8.7c0.9,1,1.4,1.9,1.1,1.9s0.4,1.2,1.5,2.8
	s4,5.4,6.3,8.7c1.5,2.2,3.1,4.4,4.8,6.5c0.3,0.3,2.2,2.8,4,5.5s3.7,5.2,4.2,5.3c0.5,0.4,0.8,1.1,0.8,1.8c0,0.8,0.3,1.4,0.8,1.4
	s1.8,1.8,3.2,4s2.9,4,3.4,4s0.7,0.3,0.3,0.6s0.9,2.5,2.6,4.8s5.7,7.8,8.7,12l5.5,7.7l0.5-81.8c0.4-65.3,0.8-82.4,1.8-84.8
	c0.7-1.6,1.3-3.2,1.8-4.9c0.7-3.6,4.8-11.2,9.1-16.8c5.6-7.3,11-11.7,20-16.2c22.9-11.5,49.6-7.5,67.7,10.2
	c6.1,5.9,13.5,16.2,14,19.5c0.1,0.8,0.3,1.5,0.7,2.2c2.6,4.3,2.8,12.5,3,100c0.2,85.6,0.1,92.5-1.5,98.5c-1,3.6-2,7.3-2.2,8.4
	c-1.5,5.7-3.5,11.2-5.9,16.6c-2.8,6-5.7,11.2-6.6,12c-0.7,0.9-1.4,1.9-1.9,3c-5.4,10.2-26,30.3-39,37.8
	c-19.4,11.3-36.4,16.1-59.5,16.8C574.8,673,568.1,673,567.5,672.8z"/>
</svg>
