<svg id="Layer_1" data-name="Layer 1" xmlns="http://www.w3.org/2000/svg" viewBox="0 0 1443 1067"><defs><style>.cls-1{fill:#003d79;}.cls-2{fill:#4cb2cf;}</style></defs><g id="layer101"><path class="cls-1" d="M889,1023.6c-6.8-1.5-15-4.4-17.5-6.2-1.8-1.3-1.8-1.6.5-9,1.3-4.1,2.7-7.7,3-7.9s2.9.7,5.7,2.1c17.6,8.4,40.2,7.7,51.3-1.5,7.3-6,11.9-19.1,12-34v-7.4l-5,5.1c-13.2,13.4-35.5,16.1-53.4,6.4-33.5-18-34.1-78.7-1-99.8,9-5.8,16.4-7.6,28.4-7.2,9.5.3,11.2.6,17.2,3.6a38,38,0,0,1,11.2,8.3l4.6,5.1v-4.5a54.53,54.53,0,0,1,.6-7.6l.7-3.1h17.5l-.5,55.3c-.5,60.7-.9,65.9-6.4,77.8-5.6,12.1-17,20.8-32.1,24.4C918.2,1025.3,897,1025.3,889,1023.6Zm35.4-65.3c6.5-2.2,12.2-7.7,15.8-15.1l3.3-6.7V920c-.1-15.1-.3-16.9-2.4-21.8-3.1-6.9-11.3-14.4-17.8-16.3-11.8-3.4-23-.3-31.2,8.7-7.1,7.7-9.3,14.1-9.9,28.4-.3,9.9-.1,12.4,1.8,17.9C890.4,956,906.5,964.5,924.4,958.3Z"/><path class="cls-1" d="M605.4,978.9c-18.7-1.8-33-11.3-40.8-26.9-13.4-27.2-4.9-65.5,17.7-80.1,8.8-5.7,16.8-7.9,28.8-7.9,19.6,0,32.1,7.4,40.3,23.7,3.8,7.6,5.6,16.4,5.6,27.6V925H578.7l.6,5.9c1.5,17.5,14.3,29.8,33,31.7,7.6.8,21.4-.9,29.3-3.6a39.5,39.5,0,0,1,5.9-1.8c.4.5,3.5,13.7,3.5,14.7,0,.5-2.8,1.9-6.2,3C633.5,978.5,618.1,980.1,605.4,978.9Zm31.2-74.1c-1.4-10.4-6.2-18.2-13.9-22.4-4.5-2.5-6.3-2.9-13.2-2.9s-8.7.4-13.3,2.9a34.16,34.16,0,0,0-8.3,6.7c-3.3,4.2-7.4,12.8-8.4,17.7l-.7,3.2h58.5Z"/><path class="cls-1" d="M1036.4,978.9c-18.7-1.8-33-11.3-40.8-26.9-13.4-27.2-4.9-65.5,17.7-80.1,8.8-5.7,16.8-7.9,28.8-7.9,19.6,0,32.1,7.4,40.3,23.7,3.8,7.6,5.6,16.4,5.6,27.6V925h-78.3l.6,5.9c1.5,17.5,14.3,29.8,33,31.7,7.6.8,21.4-.9,29.3-3.6a39.5,39.5,0,0,1,5.9-1.8c.4.5,3.5,13.7,3.5,14.7,0,.5-2.8,1.9-6.2,3C1064.5,978.5,1049.1,980.1,1036.4,978.9Zm31.2-74.1c-1.4-10.4-6.2-18.2-13.9-22.4-4.5-2.5-6.3-2.9-13.2-2.9s-8.7.4-13.3,2.9a34.16,34.16,0,0,0-8.3,6.7c-3.3,4.2-7.4,12.8-8.4,17.7l-.7,3.2h58.5Z"/><path class="cls-1" d="M221,977.5c-8.1-2-15.3-5.3-14.7-6.8.2-.6,1.4-4.2,2.6-7.9s2.7-6.8,3.2-6.8a22,22,0,0,1,4.7,1.9c10.2,5.2,24.9,6.8,33,3.6,10.3-4.1,13.3-15.7,6.3-23.8-1.6-1.8-5.8-4.5-9.3-6.1-19.6-9-24.7-11.8-28.7-15.6-6.1-5.9-8.1-10.9-8.1-20.2,0-6.7.4-8.4,3.3-13.9,6.1-11.9,18-18,35.3-18,10,0,16.3,1.1,23.6,4.3,3.7,1.6,4.7,2.5,4.3,3.7-.4.9-1.6,4.4-2.8,7.9-1.7,4.7-2.6,6.1-3.7,5.5-21.2-9.5-40-5.4-40,8.7,0,7.5,5.1,12,20.5,18,15,5.9,23.2,12.1,27.1,20.5,3.4,7.1,3.4,19.9,0,27-3,6.5-11.1,13.8-18.4,16.6S229.8,979.8,221,977.5Z"/><path class="cls-1" d="M327.6,977.5a22.17,22.17,0,0,1-11.8-9.1c-5.2-7.5-5.8-12.4-5.8-51.1V882H293V865h16.9l.3-13.2.3-13.2,8-2.2c12.6-3.5,11.5-4.8,11.5,13.1V865h29v17H329.8l.4,33.8c.5,36.6.7,38,6.3,43.2,2.4,2.3,3.5,2.5,11.8,2.5h9.2l.3,7.7.3,7.7-3.8,1C348.8,979.4,332.3,979.2,327.6,977.5Z"/><path class="cls-1" d="M392.4,977a30.81,30.81,0,0,1-16.5-15.5c-3-6.1-3.1-6.8-2.7-16.2.3-8.5.8-10.5,3.3-15.1,7.9-14.5,25.5-22.7,51.2-23.9l12.2-.6-.6-5.1c-1.5-14-9.9-20.9-25.2-20.8a54.12,54.12,0,0,0-22.4,4.9c-3.4,1.5-6.1,2.2-6.6,1.7-1-1.1-4.1-10.2-4.1-12.1s9-6.1,17.8-8.4,26.5-2.7,33.4-.8c11.4,3,20.9,11.3,24.9,21.7,2.1,5.4,2.3,7.8,3,42.2.4,20.1,1,39.1,1.4,42.3l.7,5.7H443.3l-.7-3.1a46.24,46.24,0,0,1-.6-6.6v-3.5l-4.7,4.3a60.94,60.94,0,0,1-11.3,7.3c-5.9,2.8-7.6,3.1-17.5,3.3C399.4,979,396.6,978.7,392.4,977Zm33.2-16.8A28.66,28.66,0,0,0,437.9,947c1.7-3.7,2.1-6.6,2.1-15.8V919.9l-6.2.6c-14.4,1.3-16.6,1.7-22.4,3.6-7,2.3-13.4,7.3-15.8,12.3-3.5,7.4-.9,19.1,5.3,23.5C406.8,964.1,417.7,964.3,425.6,960.2Z"/><path class="cls-1" d="M513.6,977.5a22.17,22.17,0,0,1-11.8-9.1c-5.2-7.5-5.8-12.4-5.8-51.1V882H479V865h16.9l.3-13.2.3-13.2,8-2.2c12.6-3.5,11.5-4.8,11.5,13.1V865h29v17H515.8l.4,33.8c.5,36.6.7,38,6.3,43.2,2.4,2.3,3.5,2.5,11.8,2.5h9.2l.3,7.7.3,7.7-3.8,1C534.8,979.4,518.3,979.2,513.6,977.5Z"/><path class="cls-1" d="M1261.6,977.5a22.17,22.17,0,0,1-11.8-9.1c-5.2-7.5-5.8-12.4-5.8-51.1V882h-17V865h16.9l.3-13.2.3-13.2,8-2.2c12.6-3.5,11.5-4.8,11.5,13.1V865h29v17h-29.2l.4,33.8c.5,36.6.7,38,6.3,43.2,2.4,2.3,3.5,2.5,11.8,2.5h9.2l.3,7.7.3,7.7-3.8,1C1282.8,979.4,1266.3,979.2,1261.6,977.5Z"/><path class="cls-1" d="M1322,977.5c-8.1-2-15.3-5.3-14.7-6.8.2-.6,1.4-4.2,2.6-7.9s2.7-6.8,3.2-6.8a22,22,0,0,1,4.7,1.9c10.2,5.2,24.9,6.8,33,3.6,10.3-4.1,13.3-15.7,6.3-23.8-1.6-1.8-5.8-4.5-9.3-6.1-19.6-9-24.7-11.8-28.7-15.6-6.1-5.9-8.1-10.9-8.1-20.2,0-6.7.4-8.4,3.3-13.9,6.1-11.9,18-18,35.3-18,10,0,16.3,1.1,23.6,4.3,3.7,1.6,4.7,2.5,4.3,3.7-.4.9-1.6,4.4-2.8,7.9-1.7,4.7-2.6,6.1-3.7,5.5-21.2-9.5-40-5.4-40,8.7,0,7.5,5.1,12,20.5,18,15,5.9,23.2,12.1,27.1,20.5,3.4,7.1,3.4,19.9,0,27-3,6.5-11.1,13.8-18.4,16.6S1330.8,979.8,1322,977.5Z"/><path class="cls-1" d="M102,899.5V822h84v17H122v49h61v17H122v55h68v17H102Z"/><path class="cls-1" d="M720,976.1c0-.8,49.7-147.8,51.5-152.3.6-1.6,2.2-1.8,13.4-1.8h12.6l26,76.1c14.3,41.8,26.1,76.7,26.3,77.5.3,1.2-1.5,1.4-11,1.2l-11.3-.3-8.1-24-8.1-24-27-.3-26.9-.2-8,24.5L741.5,977H730.8C724.8,977,720,976.6,720,976.1Zm78.9-87.3c-4.4-12.8-9.5-28.7-11.4-35.3l-3.3-12-1.1,4.5c-2.4,9-6.3,21.3-13.6,43.1-4.1,12.2-7.5,22.4-7.5,22.6s10.1.3,22.5.3h22.4Z"/><path class="cls-1" d="M1112,923.8c0-29.3-.3-54.3-.6-55.5-.6-2.3-.5-2.3,8.9-2.3,10.9,0,10.6-.3,10.7,11,.1,6,.2,6.3,1.5,4.5a49.22,49.22,0,0,1,16.4-13.8c6.3-3.1,7.1-3.2,18.6-3.2,11.1,0,12.4.2,17.7,2.8a38.34,38.34,0,0,1,17.3,17.4c4.7,9.8,5.4,17.4,5.5,56.6V977h-21V946.8c0-41.2-1.4-51.3-8.3-58.6-5.6-6-15.3-8.3-24-5.8-8.2,2.4-13.6,6.9-17.7,15l-3.5,6.9-.3,36.3-.4,36.4H1112Z"/><path class="cls-1" d="M871.5,732.5c-.5-.2-3.7-1.1-7-2-5.8-1.7-13.9-5.1-16-6.7-6.4-4.9-13.5-11-13.5-11.6a10.09,10.09,0,0,0-2.3-3.2c-7.3-8-10.9-19-11.4-34.2-.3-10.3,0-12.6,2.2-19.3A50.57,50.57,0,0,1,828,645a14,14,0,0,0,2-3.4c0-.8.8-1.9,6.2-8,5.5-6.3,16.9-13.8,25.5-16.7l6.8-2.3,81-.6c82.3-.6,98.7-1.3,128.5-5.1,51-6.4,80.5-16.5,110.1-37.7a213.64,213.64,0,0,0,33.7-30.6c8.3-9.5,17.2-21.7,17.2-23.6a1.48,1.48,0,0,1,.8-1.2c1-.4,10.2-16.7,10.2-18.1a14.08,14.08,0,0,1,2.1-4.3c1.1-1.9,1.8-3.4,1.5-3.4s.3-1.9,1.5-4.1a42.68,42.68,0,0,0,2.4-5.8c.2-.9,1.7-5.9,3.4-11.1s3.1-10.1,3.1-11,.9-5.5,2-10.5c3.3-15.3,4.5-29.1,4.5-53,0-23.2-1.2-37.3-4.3-51.5-.9-4.1-1.7-8.4-1.8-9.5a40,40,0,0,0-1.9-7,66.26,66.26,0,0,1-2.1-7.4,27.83,27.83,0,0,0-1.9-5.2,13.26,13.26,0,0,1-1.5-3.9c0-3.7-17.7-37.5-20.9-40a87.21,87.21,0,0,1-5.8-7.5c-13.7-18.5-44.4-43-68.8-54.9s-64.2-20.7-113.5-25c-47.6-4.2-67.9-4.9-158.2-5.4l-88.8-.4v80.1c0,70.9-.2,80.6-1.6,83.9a50.51,50.51,0,0,0-2,5.6c-.8,4-7.2,13.4-13.4,19.7a47.38,47.38,0,0,1-14,10.1c-13,6.1-13.6,6.3-27.5,6.3-11.9,0-13.6-.3-20.2-2.8a64.47,64.47,0,0,1-24-16c-2.9-3.2-5-5.7-4.6-5.7s-.1-.8-.9-1.7c-1.8-2-5.8-9.7-6.3-12.2-.2-.9-1.1-4.1-1.9-7.1-1.4-4.8-1.6-19.9-1.6-115.8,0-122-.3-116.2,6.4-130.1,4-8.4,16.7-21.4,25.1-25.7,13.6-6.9,4.7-6.6,149-6.1,129.6.3,140.3.6,186.5,4.3,41.9,3.3,84.2,10.1,111.5,18,31.2,8.9,49.1,16.3,69.6,28.6,4.6,2.7,9.8,5.8,11.4,6.8,14.9,8.6,39.7,28.2,55.8,43.9,9.5,9.2,26.6,28.7,31.7,36.1a48.22,48.22,0,0,0,3.8,5c4.3,4.7,14.7,22.4,22.3,38,2.8,5.8,5.9,12.2,7,14.2a19.84,19.84,0,0,1,1.8,4,21.27,21.27,0,0,0,1.5,4.2,22.69,22.69,0,0,1,1.6,4.7,22.63,22.63,0,0,0,1.9,5.1c2.1,4.8,4.9,13.1,5.5,16.5.3,1.2,1.1,4.6,2,7.5,2.4,8.5,5.3,21.1,5.4,23.3,0,1.1,1,6.6,2.1,12.1s2,11.2,1.9,12.5a127.17,127.17,0,0,0,1.3,13.4c1.9,14.9,1.9,59.1,0,75-.8,6.6-1.4,12.4-1.2,13,.6,2.3-6.2,36.4-9.6,48.5-.9,3-1.7,6.2-1.8,7-.2,2.3-6.1,19.6-9.1,27-.8,1.9-1.5,3.8-1.4,4.3a43.88,43.88,0,0,1-2.6,6c-1.4,2.8-3.3,6.8-4.1,8.7-3.2,7.2-5.8,12.5-6.5,13a18.19,18.19,0,0,0-2.3,4c-.8,1.9-2.1,4.4-2.7,5.5-2.4,3.8-3.5,6-3.6,6.8a13.25,13.25,0,0,1-2.2,2.9,7.55,7.55,0,0,0-2,3.5c0,.7-.4,1.3-1,1.3s-1,.7-1,1.5-.3,1.5-.7,1.5-2.1,2.3-3.8,5-3.3,5-3.7,5-.8.7-.8,1.5-.4,1.5-.8,1.5-2.7,2.7-5.1,6.1a60.54,60.54,0,0,1-7.2,8.6c-1.6,1.5-2.9,3-2.9,3.4,0,1.3-22.9,23.9-33,32.6-15.5,13.4-43,32.4-54.9,37.9a18.15,18.15,0,0,0-4.8,3,4.72,4.72,0,0,1-2.4,1.4,45.79,45.79,0,0,0-7.1,2.9c-41,19.1-87.9,29.5-153.3,34.1-36.5,2.6-52.9,3-116.5,2.9C902.9,732.9,872.1,732.7,871.5,732.5Z"/><path class="cls-1" d="M669.5,731.6c-.5-.2-4.4-.9-8.5-1.6-18.3-3-39.1-12.1-52.5-23-6.8-5.5-23.8-23.4-28.7-30.2-2.9-4-5.5-7.5-5.8-7.8a57.36,57.36,0,0,1-3.5-5.2c-1.7-2.7-3.3-4.8-3.7-4.8s-.8-.7-.8-1.5-.3-1.5-.8-1.5-1.8-1.8-3.2-4-2.8-4-3.3-4-.6-.4-.2-.9a1.22,1.22,0,0,0-.5-1.6c-.6-.3-2.9-3.4-5.2-6.8A77.41,77.41,0,0,0,548,632a55.76,55.76,0,0,1-4.4-6.4,64.73,64.73,0,0,0-5.2-7.3,41.2,41.2,0,0,1-3.1-4.3c-.9-1.7-2.1-3-2.6-3s-.6-.4-.2-.9a1.46,1.46,0,0,0-.7-1.8c-.7-.4-2.7-2.8-4.3-5.3a57,57,0,0,0-3.5-5,21.15,21.15,0,0,1-1.8-2.5c-.7-1.1-2.2-3.5-3.3-5.2s-2.5-3.3-3-3.3-.9-.7-.9-1.5a6.07,6.07,0,0,0-1.8-3.3,43.49,43.49,0,0,1-4.1-5.5,38.61,38.61,0,0,0-3.5-5c-.6-.6-2.7-3.6-4.6-6.4s-3.7-5.3-4.2-5.3-.8-.5-.8-1.1c0-1.1-5-8.2-6.2-8.7a1.65,1.65,0,0,1-.8-1.5c0-1.1-2.5-4.6-6.4-8.9-.9-1-1.5-2-1.3-2.3a7.31,7.31,0,0,0-1.5-2.5,49.29,49.29,0,0,1-4.2-5.8,39,39,0,0,0-4.1-5.5c-.9-1-1.3-1.7-.8-1.7s.3-.4-.3-.8a36.49,36.49,0,0,1-4.4-5.7c-1.9-2.7-3.7-5.2-4-5.5a5.32,5.32,0,0,1-1.3-2c-.4-.8-2.6-4-4.8-7s-5.8-8.2-8-11.5a80.16,80.16,0,0,0-4.7-6.5,34.77,34.77,0,0,1-3.7-5.2c-1.7-2.7-3.3-4.8-3.7-4.8s-.8-.7-.8-1.5-.4-1.5-.8-1.5-1.8-1.8-3.1-4-2.5-4-2.9-4-1.2-.8-1.7-1.9c-1.5-2.7-8.7-13.5-9.4-14.1a61.39,61.39,0,0,1-4.1-5.7c-1.8-2.9-3.6-5.3-3.9-5.3s-1.9-2.3-3.6-5-3.3-5-3.7-5a.92.92,0,0,1-.8-1c0-1.3-6.2-10-7.2-10a.55.55,0,0,1-.5-.8c.2-.9-3.4-6.1-6.1-8.8a6.25,6.25,0,0,1-1.4-2.1c-.1-1-2.9-5.4-4.5-7.1a31.33,31.33,0,0,1-3-4.2c-.9-1.7-2.1-3-2.6-3s-.6-.4-.2-.9a1.46,1.46,0,0,0-.7-1.8c-.7-.4-2.7-2.8-4.3-5.3a29.35,29.35,0,0,0-3.7-4.8,1.44,1.44,0,0,1-.8-1.3c0-.8-5.1-8-7-9.9a20.45,20.45,0,0,1-1.5-2.1c-3.2-5.3-8.9-13.4-10.1-14.6a35.88,35.88,0,0,1-4-5.9c-1.4-2.4-3-4.4-3.5-4.4a1,1,0,0,1-.9-1.1c0-1.1-5-8.2-6.2-8.7a1.65,1.65,0,0,1-.8-1.5c0-1.1-2.5-4.5-6.3-8.9-.9-.9-1.3-1.8-1.1-2.1s-.6-1.5-1.9-2.9a45.38,45.38,0,0,1-4.6-6.2,43.87,43.87,0,0,0-3.5-4.9c-.6-.6-2.9-4-5.1-7.4s-4.3-6.3-4.7-6.3-.8-.4-.8-1c0-.9-1.9-3.5-4.7-6.5-.7-.7-.9-1.5-.6-1.9s-.2-.8-1.1-1.2-1.6-1-1.6-1.5c0-1.1-7-11.1-8.5-12.1-.6-.5-.6-.8,0-.8s.3-.6-.5-1.3a41.29,41.29,0,0,1-4.5-5.7,24.39,24.39,0,0,0-3.7-4.8c-.5-.2-.8-1-.8-1.8s-.4-1.4-.8-1.4-1.8-1.8-3.1-4-2.5-4-2.9-4-1.2-.8-1.7-1.9c-1.7-3.1-8.6-13.3-10.1-14.8a35.88,35.88,0,0,1-4-5.9c-1.4-2.4-2.9-4.4-3.2-4.4s-2-2.3-3.7-5-3.3-5-3.7-5-.8-.7-.8-1.5-.4-1.5-.8-1.5-1.8-1.8-3.1-4-2.7-4-3.2-4-.8-.4-.5-.8-.3-1.8-1.3-2.9a53,53,0,0,1-4.4-5.9,51.71,51.71,0,0,0-4.6-6.3l-2.1-2.4-.2,256.9-.3,256.9-2.8,6.3a75.62,75.62,0,0,1-5.5,10.4c-1.5,2.3-3.1,4.8-3.6,5.7s-4,4.2-7.7,7.4a59.45,59.45,0,0,1-64.7,8.5c-6.5-3-10.2-5.7-16.5-11.9-4.4-4.3-7.7-7.9-7.2-7.9s.1-.8-.7-1.7c-2.4-2.9-6.5-12.4-7.7-18.1-.8-3.9-1.1-75.6-1.1-262.5,0-218.1.3-258.5,1.5-265.9a90.58,90.58,0,0,1,6.4-22.8,14.57,14.57,0,0,0,1.3-4.3c-.1-.5.7-2.2,1.9-3.8a15.54,15.54,0,0,0,2.3-4.4,8.36,8.36,0,0,1,1.7-3.2,47.46,47.46,0,0,0,3.9-5.8c4.1-6.9,15.7-20,23.2-26.2,15.9-13.1,30.9-20.6,50.4-25.3,12.3-2.9,41.5-2.9,53.7,0,15.8,3.8,27.7,8.9,40.2,17.3,6.4,4.3,22.6,18.3,22,18.9-.3.2,1.5,2.3,3.9,4.6a79.06,79.06,0,0,1,8.2,9.7c2,3,4.1,5.5,4.6,5.5a.92.92,0,0,1,.8,1c0,.9,6.7,11.1,9.2,14a51.6,51.6,0,0,1,4.3,6,39.53,39.53,0,0,0,4,5.5,73.26,73.26,0,0,1,4.4,6.3c1.8,2.8,3.7,5.2,4.3,5.2s.6.5.3,1-.3,1,.2,1,2.4,2.5,4.3,5.5,3.8,5.5,4.3,5.5.7.7.7,1.5.3,1.5.8,1.5,1.8,1.8,3.2,4,2.8,4,3.2,4,.8.5.8,1.1c0,1,2.8,4.9,6.5,9.2.8.9,1.4,1.9,1.3,2.2s.7,1.7,2,3.2c2.2,2.7,4,5.3,13.1,18.4,2.5,3.5,4.7,6.6,5.1,6.9s2.2,2.8,4,5.5,3.7,5.2,4.2,5.3a2.2,2.2,0,0,1,.8,1.8c0,.8.3,1.4.8,1.4s1.8,1.8,3.2,4,2.8,4,3.2,4,.7.4.5.9c-.2.8,2.7,5.1,10.3,15.1,1.4,1.9,4.1,5.8,6,8.5s3.7,5.2,4,5.5,2.1,2.8,4,5.5,3.7,5.2,4,5.5,2.4,3.2,4.5,6.5,4.3,6.5,5,7a46.23,46.23,0,0,1,4,5.7c1.7,2.7,3.3,4.8,3.8,4.8s.7.5.7,1.1c0,1.1,6,9.2,7.3,9.7a1.81,1.81,0,0,1,.7,1.5c0,.7,1,2.4,2.3,3.9,5.1,6.1,5.7,6.8,5.1,6.8-.4,0,.9,1.9,2.8,4.3s4.7,6.2,6.3,8.7a54.72,54.72,0,0,0,3.9,5.5,44.53,44.53,0,0,1,4.1,5.5c1.7,2.5,3.3,4.7,3.8,4.8a2.17,2.17,0,0,1,.7,1.8c0,.8.3,1.4.8,1.4s1.8,1.8,3.2,4,2.8,4,3.2,4,.8.6.8,1.4a2.2,2.2,0,0,0,.8,1.8,34.81,34.81,0,0,1,4.2,5.6c1.8,2.8,3.7,5.2,4.2,5.2s.8.5.8,1.1c0,1,1.6,3.3,6.2,9a81.54,81.54,0,0,1,5.9,8.7c1.2,1.7,2.5,3.2,3.1,3.2a.47.47,0,0,1,.4.8c-.3.5.7,2.4,2.2,4.3s3.9,5.1,5.2,7.1,2.8,3.8,3.3,3.8.7.6.7,1.4.3,1.6.8,1.8a25.74,25.74,0,0,1,3.6,4.8,47.06,47.06,0,0,0,4.1,5.5,67,67,0,0,1,4.5,6.3c1.8,2.8,3.7,5.2,4.2,5.2a.88.88,0,0,1,.8.9c0,.9,6.5,10.5,15.2,22.5,2.1,2.8,5.4,7.6,7.5,10.6a60.39,60.39,0,0,0,4.7,6.5,67,67,0,0,1,4.5,6.3c1.8,2.8,3.7,5.2,4.3,5.2s.7.4.4.9a.84.84,0,0,0,.2,1.3c.4.1,2.3,2.6,4.2,5.3a53.83,53.83,0,0,0,4,5.5c.3.3,2.2,2.8,4,5.5s3.7,5.2,4.2,5.3a2.2,2.2,0,0,1,.8,1.8c0,.8.4,1.4.8,1.4s1.8,1.8,3.1,4,2.6,4,3.2,4,.9.6.9,1.4c0,1.3,2,4.1,6.3,8.7.9,1,1.4,1.9,1.1,1.9s.4,1.2,1.5,2.8,4,5.4,6.3,8.7A76.57,76.57,0,0,0,649,564c.3.3,2.2,2.8,4,5.5s3.7,5.2,4.2,5.3a2.2,2.2,0,0,1,.8,1.8c0,.8.3,1.4.8,1.4s1.8,1.8,3.2,4,2.9,4,3.4,4,.7.3.3.6.9,2.5,2.6,4.8,5.7,7.8,8.7,12l5.5,7.7.5-81.8c.4-65.3.8-82.4,1.8-84.8a30.39,30.39,0,0,0,1.8-4.9c.7-3.6,4.8-11.2,9.1-16.8,5.6-7.3,11-11.7,20-16.2,22.9-11.5,49.6-7.5,67.7,10.2,6.1,5.9,13.5,16.2,14,19.5a7.11,7.11,0,0,0,.7,2.2c2.6,4.3,2.8,12.5,3,100,.2,85.6.1,92.5-1.5,98.5-1,3.6-2,7.3-2.2,8.4a116.62,116.62,0,0,1-5.9,16.6c-2.8,6-5.7,11.2-6.6,12a15.85,15.85,0,0,0-1.9,3c-5.4,10.2-26,30.3-39,37.8-19.4,11.3-36.4,16.1-59.5,16.8C676.8,731.8,670.1,731.8,669.5,731.6Z"/></g><g id="layer102"><path class="cls-2" d="M669.5,731.6c-.5-.2-4.4-.9-8.5-1.6-18.3-3-39.1-12.1-52.5-23-6.8-5.5-23.8-23.4-28.7-30.2-2.9-4-5.5-7.5-5.8-7.8a57.36,57.36,0,0,1-3.5-5.2c-1.7-2.7-3.3-4.8-3.7-4.8s-.8-.7-.8-1.5-.3-1.5-.8-1.5-1.8-1.8-3.2-4-2.8-4-3.3-4-.6-.4-.2-.9a1.22,1.22,0,0,0-.5-1.6c-.6-.3-2.9-3.4-5.2-6.8A77.41,77.41,0,0,0,548,632a55.76,55.76,0,0,1-4.4-6.4,64.73,64.73,0,0,0-5.2-7.3,41.2,41.2,0,0,1-3.1-4.3c-.9-1.7-2.1-3-2.6-3s-.6-.4-.2-.9a1.46,1.46,0,0,0-.7-1.8c-.7-.4-2.7-2.8-4.3-5.3a57,57,0,0,0-3.5-5,21.15,21.15,0,0,1-1.8-2.5c-.7-1.1-2.2-3.5-3.3-5.2s-2.5-3.3-3-3.3-.9-.7-.9-1.5a6.07,6.07,0,0,0-1.8-3.3,43.49,43.49,0,0,1-4.1-5.5,38.61,38.61,0,0,0-3.5-5c-.6-.6-2.7-3.6-4.6-6.4s-3.7-5.3-4.2-5.3-.8-.5-.8-1.1c0-1.1-5-8.2-6.2-8.7a1.65,1.65,0,0,1-.8-1.5c0-1.1-2.5-4.6-6.4-8.9-.9-1-1.5-2-1.3-2.3a7.31,7.31,0,0,0-1.5-2.5,49.29,49.29,0,0,1-4.2-5.8,39,39,0,0,0-4.1-5.5c-.9-1-1.3-1.7-.8-1.7s.3-.4-.3-.8a36.49,36.49,0,0,1-4.4-5.7c-1.9-2.7-3.7-5.2-4-5.5a5.32,5.32,0,0,1-1.3-2c-.4-.8-2.6-4-4.8-7s-5.8-8.2-8-11.5a80.16,80.16,0,0,0-4.7-6.5,34.77,34.77,0,0,1-3.7-5.2c-1.7-2.7-3.3-4.8-3.7-4.8s-.8-.7-.8-1.5-.4-1.5-.8-1.5-1.8-1.8-3.1-4-2.5-4-2.9-4-1.2-.8-1.7-1.9c-1.5-2.7-8.7-13.5-9.4-14.1a61.39,61.39,0,0,1-4.1-5.7c-1.8-2.9-3.6-5.3-3.9-5.3s-1.9-2.3-3.6-5-3.3-5-3.7-5a.92.92,0,0,1-.8-1c0-1.3-6.2-10-7.2-10a.55.55,0,0,1-.5-.8c.2-.9-3.4-6.1-6.1-8.8a6.25,6.25,0,0,1-1.4-2.1c-.1-1-2.9-5.4-4.5-7.1a31.33,31.33,0,0,1-3-4.2c-.9-1.7-2.1-3-2.6-3s-.6-.4-.2-.9a1.46,1.46,0,0,0-.7-1.8c-.7-.4-2.7-2.8-4.3-5.3a29.35,29.35,0,0,0-3.7-4.8,1.44,1.44,0,0,1-.8-1.3c0-.8-5.1-8-7-9.9a20.45,20.45,0,0,1-1.5-2.1c-3.2-5.3-8.9-13.4-10.1-14.6a35.88,35.88,0,0,1-4-5.9c-1.4-2.4-3-4.4-3.5-4.4a1,1,0,0,1-.9-1.1c0-1.1-5-8.2-6.2-8.7a1.65,1.65,0,0,1-.8-1.5c0-1.1-2.5-4.5-6.3-8.9-.9-.9-1.3-1.8-1.1-2.1s-.6-1.5-1.9-2.9a45.38,45.38,0,0,1-4.6-6.2,43.87,43.87,0,0,0-3.5-4.9c-.6-.6-2.9-4-5.1-7.4s-4.3-6.3-4.7-6.3-.8-.4-.8-1c0-.9-1.9-3.5-4.7-6.5-.7-.7-.9-1.5-.6-1.9s-.2-.8-1.1-1.2-1.6-1-1.6-1.5c0-1.1-7-11.1-8.5-12.1-.6-.5-.6-.8,0-.8s.3-.6-.5-1.3a41.29,41.29,0,0,1-4.5-5.7,24.39,24.39,0,0,0-3.7-4.8c-.5-.2-.8-1-.8-1.8s-.4-1.4-.8-1.4-1.8-1.8-3.1-4-2.5-4-2.9-4-1.2-.8-1.7-1.9c-1.7-3.1-8.6-13.3-10.1-14.8a35.88,35.88,0,0,1-4-5.9c-1.4-2.4-2.9-4.4-3.2-4.4s-2-2.3-3.7-5-3.3-5-3.7-5-.8-.7-.8-1.5-.4-1.5-.8-1.5-1.8-1.8-3.1-4-2.7-4-3.2-4-.8-.4-.5-.8-.3-1.8-1.3-2.9a53,53,0,0,1-4.4-5.9,51.71,51.71,0,0,0-4.6-6.3l-2.1-2.4-.2,256.9-.3,256.9-2.8,6.3a75.62,75.62,0,0,1-5.5,10.4c-1.5,2.3-3.1,4.8-3.6,5.7s-4,4.2-7.7,7.4a59.45,59.45,0,0,1-64.7,8.5c-6.5-3-10.2-5.7-16.5-11.9-4.4-4.3-7.7-7.9-7.2-7.9s.1-.8-.7-1.7c-2.4-2.9-6.5-12.4-7.7-18.1-.8-3.9-1.1-75.6-1.1-262.5,0-218.1.3-258.5,1.5-265.9a90.58,90.58,0,0,1,6.4-22.8,14.57,14.57,0,0,0,1.3-4.3c-.1-.5.7-2.2,1.9-3.8a15.54,15.54,0,0,0,2.3-4.4,8.36,8.36,0,0,1,1.7-3.2,47.46,47.46,0,0,0,3.9-5.8c4.1-6.9,15.7-20,23.2-26.2,15.9-13.1,30.9-20.6,50.4-25.3,12.3-2.9,41.5-2.9,53.7,0,15.8,3.8,27.7,8.9,40.2,17.3,6.4,4.3,22.6,18.3,22,18.9-.3.2,1.5,2.3,3.9,4.6a79.06,79.06,0,0,1,8.2,9.7c2,3,4.1,5.5,4.6,5.5a.92.92,0,0,1,.8,1c0,.9,6.7,11.1,9.2,14a51.6,51.6,0,0,1,4.3,6,39.53,39.53,0,0,0,4,5.5,73.26,73.26,0,0,1,4.4,6.3c1.8,2.8,3.7,5.2,4.3,5.2s.6.5.3,1-.3,1,.2,1,2.4,2.5,4.3,5.5,3.8,5.5,4.3,5.5.7.7.7,1.5.3,1.5.8,1.5,1.8,1.8,3.2,4,2.8,4,3.2,4,.8.5.8,1.1c0,1,2.8,4.9,6.5,9.2.8.9,1.4,1.9,1.3,2.2s.7,1.7,2,3.2c2.2,2.7,4,5.3,13.1,18.4,2.5,3.5,4.7,6.6,5.1,6.9s2.2,2.8,4,5.5,3.7,5.2,4.2,5.3a2.2,2.2,0,0,1,.8,1.8c0,.8.3,1.4.8,1.4s1.8,1.8,3.2,4,2.8,4,3.2,4,.7.4.5.9c-.2.8,2.7,5.1,10.3,15.1,1.4,1.9,4.1,5.8,6,8.5s3.7,5.2,4,5.5,2.1,2.8,4,5.5,3.7,5.2,4,5.5,2.4,3.2,4.5,6.5,4.3,6.5,5,7a46.23,46.23,0,0,1,4,5.7c1.7,2.7,3.3,4.8,3.8,4.8s.7.5.7,1.1c0,1.1,6,9.2,7.3,9.7a1.81,1.81,0,0,1,.7,1.5c0,.7,1,2.4,2.3,3.9,5.1,6.1,5.7,6.8,5.1,6.8-.4,0,.9,1.9,2.8,4.3s4.7,6.2,6.3,8.7a54.72,54.72,0,0,0,3.9,5.5,44.53,44.53,0,0,1,4.1,5.5c1.7,2.5,3.3,4.7,3.8,4.8a2.17,2.17,0,0,1,.7,1.8c0,.8.3,1.4.8,1.4s1.8,1.8,3.2,4,2.8,4,3.2,4,.8.6.8,1.4a2.2,2.2,0,0,0,.8,1.8,34.81,34.81,0,0,1,4.2,5.6c1.8,2.8,3.7,5.2,4.2,5.2s.8.5.8,1.1c0,1,1.6,3.3,6.2,9a81.54,81.54,0,0,1,5.9,8.7c1.2,1.7,2.5,3.2,3.1,3.2a.47.47,0,0,1,.4.8c-.3.5.7,2.4,2.2,4.3s3.9,5.1,5.2,7.1,2.8,3.8,3.3,3.8.7.6.7,1.4.3,1.6.8,1.8a25.74,25.74,0,0,1,3.6,4.8,47.06,47.06,0,0,0,4.1,5.5,67,67,0,0,1,4.5,6.3c1.8,2.8,3.7,5.2,4.2,5.2a.88.88,0,0,1,.8.9c0,.9,6.5,10.5,15.2,22.5,2.1,2.8,5.4,7.6,7.5,10.6a60.39,60.39,0,0,0,4.7,6.5,67,67,0,0,1,4.5,6.3c1.8,2.8,3.7,5.2,4.3,5.2s.7.4.4.9a.84.84,0,0,0,.2,1.3c.4.1,2.3,2.6,4.2,5.3a53.83,53.83,0,0,0,4,5.5c.3.3,2.2,2.8,4,5.5s3.7,5.2,4.2,5.3a2.2,2.2,0,0,1,.8,1.8c0,.8.4,1.4.8,1.4s1.8,1.8,3.1,4,2.6,4,3.2,4,.9.6.9,1.4c0,1.3,2,4.1,6.3,8.7.9,1,1.4,1.9,1.1,1.9s.4,1.2,1.5,2.8,4,5.4,6.3,8.7A76.57,76.57,0,0,0,649,564c.3.3,2.2,2.8,4,5.5s3.7,5.2,4.2,5.3a2.2,2.2,0,0,1,.8,1.8c0,.8.3,1.4.8,1.4s1.8,1.8,3.2,4,2.9,4,3.4,4,.7.3.3.6.9,2.5,2.6,4.8,5.7,7.8,8.7,12l5.5,7.7.5-81.8c.4-65.3.8-82.4,1.8-84.8a30.39,30.39,0,0,0,1.8-4.9c.7-3.6,4.8-11.2,9.1-16.8,5.6-7.3,11-11.7,20-16.2,22.9-11.5,49.6-7.5,67.7,10.2,6.1,5.9,13.5,16.2,14,19.5a7.11,7.11,0,0,0,.7,2.2c2.6,4.3,2.8,12.5,3,100,.2,85.6.1,92.5-1.5,98.5-1,3.6-2,7.3-2.2,8.4a116.62,116.62,0,0,1-5.9,16.6c-2.8,6-5.7,11.2-6.6,12a15.85,15.85,0,0,0-1.9,3c-5.4,10.2-26,30.3-39,37.8-19.4,11.3-36.4,16.1-59.5,16.8C676.8,731.8,670.1,731.8,669.5,731.6Z"/></g></svg>