<?xml version="1.0" encoding="UTF-8"?>
<svg xmlns="http://www.w3.org/2000/svg" width="341.388" height="59.924" viewBox="0 0 341.388 59.924">
  <g transform="translate(-0.313 -0.025)">
    <path d="M122.943,794.694a10.221,10.221,0,0,1-2.734-.969c-.281-.2-.281-.25.078-1.406a7.258,7.258,0,0,1,.469-1.234,2.653,2.653,0,0,1,.89.328c2.749,1.312,6.28,1.2,8.014-.234,1.14-.937,1.859-2.984,1.875-5.311v-1.14l-.781.8a7.1,7.1,0,0,1-8.342,1c-5.233-2.812-5.327-12.294-.156-15.591a6.816,6.816,0,0,1,4.437-1.125,4.814,4.814,0,0,1,2.687.562,6.219,6.219,0,0,1,1.75,1.3l.719.8v-.7a7.607,7.607,0,0,1,.094-1.188l.109-.484h2.734l-.078,8.639c-.078,9.482-.141,10.295-1,12.154a7.118,7.118,0,0,1-5.015,3.812A20.82,20.82,0,0,1,122.943,794.694Zm5.53-10.2a4.474,4.474,0,0,0,2.468-2.359l.516-1.047V778.51c-.016-2.359-.047-2.64-.375-3.406a5.242,5.242,0,0,0-2.781-2.546,4.61,4.61,0,0,0-4.874,1.359c-1.109,1.2-1.453,2.2-1.547,4.437a6.3,6.3,0,0,0,.281,2.8C123.162,784.133,125.677,785.461,128.473,784.493ZM78.64,787.711a7.607,7.607,0,0,1-6.374-4.2c-2.093-4.249-.765-10.232,2.765-12.513a7.5,7.5,0,0,1,4.5-1.234c3.062,0,5.015,1.156,6.3,3.7a9.38,9.38,0,0,1,.875,4.311v1.516H74.469l.094.922a5.383,5.383,0,0,0,5.155,4.952,13.306,13.306,0,0,0,4.577-.562,4.832,4.832,0,0,1,.922-.281,23.555,23.555,0,0,1,.547,2.3,2.324,2.324,0,0,1-.969.468A16.739,16.739,0,0,1,78.64,787.711Zm4.874-11.576a4.439,4.439,0,0,0-2.171-3.5,3.272,3.272,0,0,0-2.062-.453,3.348,3.348,0,0,0-2.078.453,5.243,5.243,0,0,0-1.3,1.046,8.477,8.477,0,0,0-1.312,2.765l-.109.5h9.139Zm62.456,11.576a7.607,7.607,0,0,1-6.374-4.2c-2.093-4.249-.765-10.232,2.765-12.513a7.5,7.5,0,0,1,4.5-1.234c3.062,0,5.015,1.156,6.3,3.7a9.38,9.38,0,0,1,.875,4.311v1.516H141.8l.094.922a5.383,5.383,0,0,0,5.155,4.952,13.306,13.306,0,0,0,4.577-.562,4.833,4.833,0,0,1,.922-.281,23.559,23.559,0,0,1,.547,2.3,2.324,2.324,0,0,1-.969.468A16.739,16.739,0,0,1,145.969,787.711Zm4.874-11.576a4.439,4.439,0,0,0-2.171-3.5,3.272,3.272,0,0,0-2.062-.453,3.348,3.348,0,0,0-2.078.453,5.242,5.242,0,0,0-1.3,1.046,8.477,8.477,0,0,0-1.312,2.765l-.109.5h9.139ZM18.59,787.492c-1.265-.312-2.39-.828-2.3-1.062.031-.094.219-.656.406-1.234a2.747,2.747,0,0,1,.5-1.062,4.283,4.283,0,0,1,.734.3,7.27,7.27,0,0,0,5.155.562,2.3,2.3,0,0,0,.984-3.718,5.3,5.3,0,0,0-1.453-.953c-3.062-1.406-3.859-1.843-4.483-2.437a3.76,3.76,0,0,1-1.265-3.155,3.518,3.518,0,0,1,.516-2.171c.953-1.859,2.812-2.812,5.514-2.812a8.322,8.322,0,0,1,3.687.672c.578.25.734.39.672.578-.062.141-.25.687-.437,1.234-.266.734-.406.953-.578.859C22.933,771.6,20,772.245,20,774.448c0,1.172.8,1.875,3.2,2.812,2.343.922,3.624,1.89,4.233,3.2a5.781,5.781,0,0,1,0,4.218,5.847,5.847,0,0,1-2.874,2.594A14.915,14.915,0,0,1,18.59,787.492Zm16.653,0a3.482,3.482,0,0,1-1.843-1.421c-.812-1.172-.906-1.937-.906-7.983v-5.514H29.838v-2.656h2.64l.047-2.062.047-2.062,1.25-.344c1.968-.547,1.8-.75,1.8,2.046v2.422h4.53v2.656H35.586l.062,5.28c.078,5.718.109,5.936.984,6.749.375.359.547.39,1.843.39h1.437l.047,1.2.047,1.2-.594.156A11.649,11.649,0,0,1,35.243,787.492Zm10.123-.078a4.772,4.772,0,0,1-2.578-2.422,3.667,3.667,0,0,1-.422-2.53,4.155,4.155,0,0,1,.516-2.359c1.234-2.265,3.984-3.546,8-3.734l1.906-.094-.094-.8c-.234-2.187-1.547-3.265-3.937-3.25a8.452,8.452,0,0,0-3.5.766c-.531.234-.953.344-1.031.265a7.087,7.087,0,0,1-.64-1.89c0-.3,1.406-.953,2.781-1.312a14.1,14.1,0,0,1,5.218-.125,5.745,5.745,0,0,1,3.89,3.39c.328.844.359,1.219.469,6.593.062,3.14.156,6.108.219,6.608l.109.891H53.317l-.109-.484a5.755,5.755,0,0,1-.094-1.031v-.547l-.734.672a10,10,0,0,1-1.765,1.141,5.008,5.008,0,0,1-2.734.516A5.281,5.281,0,0,1,45.366,787.414Zm5.186-2.625a4.55,4.55,0,0,0,1.921-2.062,5.237,5.237,0,0,0,.328-2.469v-1.765l-.969.094a12.714,12.714,0,0,0-3.5.562,4.339,4.339,0,0,0-2.468,1.922,3.28,3.28,0,0,0,.828,3.671A4.05,4.05,0,0,0,50.552,784.79Zm13.747,2.7a3.482,3.482,0,0,1-1.843-1.421c-.812-1.172-.906-1.937-.906-7.983v-5.514H58.894v-2.656h2.64l.047-2.062.047-2.062,1.25-.344c1.968-.547,1.8-.75,1.8,2.046v2.422H69.2v2.656H64.643l.062,5.28c.078,5.718.109,5.936.984,6.749.375.359.547.39,1.843.39H68.97l.047,1.2.047,1.2-.594.156A11.649,11.649,0,0,1,64.3,787.492Zm116.851,0a3.482,3.482,0,0,1-1.843-1.421c-.812-1.172-.906-1.937-.906-7.983v-5.514h-2.656v-2.656h2.64l.047-2.062.047-2.062,1.25-.344c1.968-.547,1.8-.75,1.8,2.046v2.422h4.53v2.656h-4.562l.062,5.28c.078,5.718.109,5.936.984,6.749.375.359.547.39,1.843.39h1.437l.047,1.2.047,1.2-.594.156A11.649,11.649,0,0,1,181.15,787.492Zm9.436,0c-1.265-.312-2.39-.828-2.3-1.062.031-.094.219-.656.406-1.234a2.747,2.747,0,0,1,.5-1.062,4.283,4.283,0,0,1,.734.3,7.27,7.27,0,0,0,5.155.562,2.3,2.3,0,0,0,.984-3.718,5.3,5.3,0,0,0-1.453-.953c-3.062-1.406-3.859-1.843-4.483-2.437a3.76,3.76,0,0,1-1.265-3.155,3.518,3.518,0,0,1,.516-2.171c.953-1.859,2.812-2.812,5.514-2.812a8.322,8.322,0,0,1,3.687.672c.578.25.734.39.672.578-.063.141-.25.687-.437,1.234-.266.734-.406.953-.578.859-3.312-1.484-6.249-.844-6.249,1.359,0,1.172.8,1.875,3.2,2.812,2.343.922,3.624,1.89,4.234,3.2a5.782,5.782,0,0,1,0,4.218,5.847,5.847,0,0,1-2.874,2.594A14.915,14.915,0,0,1,190.585,787.492ZM0,775.307V763.2H13.122v2.656h-10v7.654h9.529v2.656H3.124v8.592H13.747v2.656H0Zm96.542,11.966c0-.125,7.764-23.089,8.045-23.792.094-.25.344-.281,2.093-.281h1.968l4.062,11.889c2.234,6.53,4.077,11.981,4.109,12.106.047.187-.234.219-1.718.187l-1.765-.046-1.265-3.749-1.265-3.749-4.218-.047-4.2-.031-1.25,3.828L99.9,787.414H98.229A5.147,5.147,0,0,1,96.542,787.274Zm12.326-13.638c-.687-2-1.484-4.484-1.781-5.515l-.516-1.875-.172.7c-.375,1.406-.984,3.327-2.125,6.733-.64,1.906-1.172,3.5-1.172,3.531s1.578.047,3.515.047h3.5ZM157.78,779.1c0-4.577-.047-8.483-.094-8.67-.094-.359-.078-.359,1.39-.359,1.7,0,1.656-.047,1.672,1.719.016.937.031.984.234.7a7.748,7.748,0,0,1,2.562-2.156c.984-.484,1.109-.5,2.906-.5,1.734,0,1.937.031,2.765.437a5.992,5.992,0,0,1,2.7,2.718c.734,1.531.844,2.718.859,8.842v5.577H169.5V782.7c0-6.436-.219-8.014-1.3-9.154a3.791,3.791,0,0,0-3.749-.906,4.21,4.21,0,0,0-2.765,2.343l-.547,1.078-.047,5.671-.062,5.686H157.78Z" transform="translate(141.876 -744.488)" fill="#003d79"></path>
    <path d="M597.755,60.137c-.044-.018-.329-.1-.622-.178a6.546,6.546,0,0,1-1.422-.6,9.267,9.267,0,0,1-1.2-1.031.8.8,0,0,0-.2-.284,4.518,4.518,0,0,1-1.013-3.04,3.852,3.852,0,0,1,.2-1.716,4.337,4.337,0,0,1,.4-.933,1.3,1.3,0,0,0,.178-.3c0-.071.071-.169.551-.711a6.134,6.134,0,0,1,2.267-1.485l.6-.2,7.2-.053c7.316-.053,8.774-.116,11.423-.453,4.534-.569,7.156-1.467,9.787-3.351a18.914,18.914,0,0,0,3-2.72,10.457,10.457,0,0,0,1.529-2.1.116.116,0,0,1,.071-.107,9.393,9.393,0,0,0,.907-1.609,1.273,1.273,0,0,1,.187-.382c.1-.169.16-.3.133-.3s.027-.169.133-.364a5.156,5.156,0,0,0,.213-.516c.018-.08.151-.524.3-.987a7.494,7.494,0,0,0,.276-.978c0-.08.08-.489.178-.933a20.654,20.654,0,0,0,.4-4.712,20.369,20.369,0,0,0-.382-4.578c-.08-.364-.151-.747-.16-.845a3.8,3.8,0,0,0-.169-.622c-.071-.213-.133-.436-.187-.658a2.879,2.879,0,0,0-.169-.462,1.162,1.162,0,0,1-.133-.347,17.852,17.852,0,0,0-1.858-3.556,7.353,7.353,0,0,1-.515-.667,19.576,19.576,0,0,0-6.116-4.88,30.875,30.875,0,0,0-10.09-2.222,138.285,138.285,0,0,0-14.064-.48l-7.894-.036v7.121c0,6.3-.018,7.165-.142,7.458a4.674,4.674,0,0,0-.178.5,5.229,5.229,0,0,1-1.191,1.751,4.276,4.276,0,0,1-1.245.9,3.939,3.939,0,0,1-2.445.56,3.777,3.777,0,0,1-1.8-.249,5.769,5.769,0,0,1-2.134-1.422,2.228,2.228,0,0,1-.409-.507c.036,0-.009-.071-.08-.151a4.056,4.056,0,0,1-.56-1.085c-.018-.08-.1-.364-.169-.631-.124-.427-.142-1.769-.142-10.294,0-10.845-.027-10.33.569-11.565A6.46,6.46,0,0,1,583.8.834c1.209-.613.418-.587,13.246-.542,11.521.027,12.472.053,16.579.382a54.7,54.7,0,0,1,9.912,1.6,23.216,23.216,0,0,1,6.187,2.542c.409.24.871.516,1.013.6a30.855,30.855,0,0,1,4.96,3.9,32.165,32.165,0,0,1,2.818,3.209,5.3,5.3,0,0,0,.338.444,20.826,20.826,0,0,1,1.982,3.378c.249.516.525,1.085.622,1.262a2.556,2.556,0,0,1,.16.356,2.685,2.685,0,0,0,.133.373,2.329,2.329,0,0,1,.142.418,1.98,1.98,0,0,0,.169.453,9.1,9.1,0,0,1,.489,1.467c.027.107.1.409.178.667a19.8,19.8,0,0,1,.48,2.071c0,.1.089.587.187,1.076a7.989,7.989,0,0,1,.169,1.111,10.5,10.5,0,0,0,.115,1.191,43.912,43.912,0,0,1,0,6.667,9.991,9.991,0,0,0-.107,1.156,34.992,34.992,0,0,1-.854,4.311c-.08.267-.151.551-.16.622a22.938,22.938,0,0,1-.809,2.4,1.348,1.348,0,0,0-.125.382,3.563,3.563,0,0,1-.231.533c-.124.249-.293.6-.365.773a7.153,7.153,0,0,1-.578,1.156,1.743,1.743,0,0,0-.2.356c-.071.169-.187.391-.24.489a2.436,2.436,0,0,0-.32.6,1.1,1.1,0,0,1-.2.258.648.648,0,0,0-.178.311c0,.062-.036.116-.089.116s-.089.062-.089.133-.027.133-.062.133a1.728,1.728,0,0,0-.338.444,1.8,1.8,0,0,1-.329.444c-.036,0-.071.062-.071.133s-.035.133-.071.133a2.513,2.513,0,0,0-.453.542,4.776,4.776,0,0,1-.64.765,1.07,1.07,0,0,0-.258.3,33.433,33.433,0,0,1-2.934,2.9,29.474,29.474,0,0,1-4.88,3.369,1.637,1.637,0,0,0-.427.267.4.4,0,0,1-.213.124,4.268,4.268,0,0,0-.631.258c-3.645,1.7-7.814,2.622-13.628,3.031-3.245.231-4.7.267-10.356.258C600.547,60.172,597.809,60.155,597.755,60.137Z" transform="translate(-529.392 -0.224)" fill="#003d79"></path>
    <path d="M54.093,59.832c-.044-.018-.391-.08-.756-.142a10.729,10.729,0,0,1-4.667-2.045,22.667,22.667,0,0,1-2.551-2.685c-.258-.356-.489-.667-.516-.693a5.254,5.254,0,0,1-.311-.462,1.541,1.541,0,0,0-.329-.427c-.036,0-.071-.062-.071-.133s-.027-.133-.071-.133-.16-.16-.284-.356-.249-.356-.293-.356-.053-.036-.018-.08a.1.1,0,0,0-.044-.142,3.705,3.705,0,0,1-.462-.6,7.216,7.216,0,0,0-.427-.6,4.965,4.965,0,0,1-.391-.569,5.7,5.7,0,0,0-.462-.649,3.779,3.779,0,0,1-.276-.382c-.08-.151-.187-.267-.231-.267s-.053-.036-.018-.08a.121.121,0,0,0-.062-.16,2.094,2.094,0,0,1-.382-.471,4.994,4.994,0,0,0-.311-.444,1.278,1.278,0,0,1-.16-.222c-.062-.1-.2-.311-.293-.462s-.222-.293-.267-.293-.08-.062-.08-.133a.533.533,0,0,0-.16-.293,3.879,3.879,0,0,1-.364-.489,3.068,3.068,0,0,0-.311-.444c-.053-.053-.24-.32-.409-.569a1.881,1.881,0,0,0-.373-.471c-.044,0-.071-.044-.071-.1a2.573,2.573,0,0,0-.551-.773.157.157,0,0,1-.071-.133,2.465,2.465,0,0,0-.569-.791c-.08-.089-.133-.178-.116-.2a.572.572,0,0,0-.133-.222,5.445,5.445,0,0,1-.373-.516,3.329,3.329,0,0,0-.364-.489c-.08-.089-.116-.151-.071-.151s.027-.036-.027-.071A3.508,3.508,0,0,1,36,40.622c-.169-.24-.329-.462-.356-.489a.474.474,0,0,1-.116-.178c-.036-.071-.231-.356-.427-.622s-.516-.729-.711-1.022c-.133-.2-.267-.391-.418-.578a3.355,3.355,0,0,1-.329-.462,1.541,1.541,0,0,0-.329-.427c-.036,0-.071-.062-.071-.133s-.036-.133-.071-.133a1.069,1.069,0,0,1-.276-.356c-.116-.2-.222-.356-.258-.356s-.107-.071-.151-.169c-.133-.24-.773-1.2-.836-1.253a5.238,5.238,0,0,1-.364-.507,2.184,2.184,0,0,0-.347-.471,2.216,2.216,0,0,1-.32-.444,1.8,1.8,0,0,0-.329-.444.087.087,0,0,1-.071-.089,2.888,2.888,0,0,0-.64-.889.05.05,0,0,1-.053-.044.033.033,0,0,1,.009-.027A2.406,2.406,0,0,0,29,30.745a.53.53,0,0,1-.124-.187,2.326,2.326,0,0,0-.4-.631,2.835,2.835,0,0,1-.267-.373c-.08-.151-.187-.267-.231-.267s-.053-.036-.018-.08a.121.121,0,0,0-.062-.16,2.094,2.094,0,0,1-.382-.471,3.032,3.032,0,0,0-.329-.427.119.119,0,0,1-.071-.116,4.7,4.7,0,0,0-.622-.88l-.133-.187a13.1,13.1,0,0,0-.9-1.3,3.023,3.023,0,0,1-.356-.524c-.124-.213-.267-.391-.311-.391a.09.09,0,0,1-.08-.1h0a2.573,2.573,0,0,0-.551-.773.157.157,0,0,1-.071-.133,2.64,2.64,0,0,0-.56-.791c-.08-.08-.116-.16-.1-.187s-.053-.133-.169-.258a4.215,4.215,0,0,1-.409-.551,4.869,4.869,0,0,0-.311-.436c-.053-.053-.258-.356-.453-.658a2.706,2.706,0,0,0-.418-.56.081.081,0,0,1-.071-.089,1.678,1.678,0,0,0-.418-.578c-.062-.062-.08-.133-.053-.169s-.018-.071-.1-.107-.142-.089-.142-.133a5.056,5.056,0,0,0-.756-1.076c-.053-.044-.053-.071,0-.071s.027-.053-.044-.116a3.576,3.576,0,0,1-.4-.507,2.186,2.186,0,0,0-.329-.427c-.044-.018-.071-.089-.071-.16s-.036-.124-.071-.124a1.069,1.069,0,0,1-.276-.356c-.116-.2-.222-.356-.258-.356s-.107-.071-.151-.169a12.88,12.88,0,0,0-.9-1.316,3.023,3.023,0,0,1-.356-.524A1.478,1.478,0,0,0,17,13.642a2.083,2.083,0,0,1-.329-.444,1.8,1.8,0,0,0-.329-.444c-.036,0-.071-.062-.071-.133s-.036-.133-.071-.133a1.069,1.069,0,0,1-.276-.356c-.116-.2-.24-.356-.284-.356s-.071-.036-.044-.071-.027-.16-.116-.258a4.464,4.464,0,0,1-.391-.524,5.012,5.012,0,0,0-.409-.56l-.187-.213-.018,22.838-.027,22.838-.249.56a7.055,7.055,0,0,1-.489.925c-.133.2-.276.427-.32.507a5.6,5.6,0,0,1-.685.658,5.283,5.283,0,0,1-5.752.756A4.549,4.549,0,0,1,5.485,58.17a3.723,3.723,0,0,1-.64-.7c.044,0,.009-.071-.062-.151A5.214,5.214,0,0,1,4.1,55.708c-.071-.347-.1-6.721-.1-23.335,0-19.388.027-22.98.133-23.638A8.1,8.1,0,0,1,4.7,6.708a1.187,1.187,0,0,0,.116-.382.749.749,0,0,1,.169-.338,1.265,1.265,0,0,0,.2-.391.678.678,0,0,1,.151-.284A5.22,5.22,0,0,0,5.689,4.8,12.092,12.092,0,0,1,7.751,2.467,10.482,10.482,0,0,1,12.232.218a14.829,14.829,0,0,1,4.774,0,10.351,10.351,0,0,1,3.574,1.538,13.669,13.669,0,0,1,1.956,1.68c-.027.018.133.2.347.409a7.479,7.479,0,0,1,.729.862,1.755,1.755,0,0,0,.409.489.087.087,0,0,1,.071.089,8.254,8.254,0,0,0,.818,1.245,4.487,4.487,0,0,1,.382.533,3.81,3.81,0,0,0,.356.489,6.288,6.288,0,0,1,.391.56c.16.249.329.462.382.462s.053.044.027.089-.027.089.018.089a1.722,1.722,0,0,1,.382.489,1.722,1.722,0,0,0,.382.489c.044,0,.062.062.062.133s.027.133.071.133.16.16.284.356a1.169,1.169,0,0,0,.284.356c.036,0,.071.044.071.1a3.039,3.039,0,0,0,.578.818c.071.08.124.169.116.2a.684.684,0,0,0,.178.284c.2.24.356.471,1.165,1.636.222.311.418.587.453.613a4.456,4.456,0,0,1,.356.489,2.06,2.06,0,0,0,.373.471.208.208,0,0,1,.071.16c0,.071.027.124.071.124s.16.16.284.356a1.168,1.168,0,0,0,.284.356.053.053,0,0,1,.044.08,5.991,5.991,0,0,0,.916,1.342c.124.169.364.516.533.756s.329.462.356.489.187.249.356.489.329.462.356.489.213.284.4.578a4.175,4.175,0,0,0,.444.622,3.993,3.993,0,0,1,.356.507,1.341,1.341,0,0,0,.338.427c.044,0,.062.044.062.1a3.143,3.143,0,0,0,.649.862.16.16,0,0,1,.062.133.822.822,0,0,0,.2.347c.453.542.507.6.453.6-.036,0,.08.169.249.382s.418.551.56.773c.107.169.222.329.347.489a3.879,3.879,0,0,1,.364.489,1.825,1.825,0,0,0,.338.427.185.185,0,0,1,.062.16c0,.071.027.124.071.124s.16.16.284.356a1.169,1.169,0,0,0,.284.356c.036,0,.071.053.071.124a.208.208,0,0,0,.071.16,2.913,2.913,0,0,1,.373.5,1.585,1.585,0,0,0,.373.462c.044,0,.071.044.071.1,0,.089.142.293.551.8a7.393,7.393,0,0,1,.524.773c.107.151.222.284.276.284.027,0,.044.009.044.036a.053.053,0,0,1-.009.036c-.027.044.062.213.2.382s.347.453.462.631.249.338.293.338.062.053.062.124.027.142.071.16a2.432,2.432,0,0,1,.32.427,3.878,3.878,0,0,0,.364.489,6.371,6.371,0,0,1,.4.56,1.586,1.586,0,0,0,.373.462.073.073,0,0,1,.071.08,18.656,18.656,0,0,0,1.351,2c.187.249.48.676.667.942a5.3,5.3,0,0,0,.418.578,6.371,6.371,0,0,1,.4.56c.16.249.329.462.382.462s.062.036.036.08a.081.081,0,0,0,0,.107.031.031,0,0,0,.018.009,2.759,2.759,0,0,1,.373.471,4.909,4.909,0,0,0,.356.489c.027.027.2.249.356.489a2.059,2.059,0,0,0,.373.471.208.208,0,0,1,.071.16c0,.071.036.124.071.124a1.069,1.069,0,0,1,.276.356c.116.2.231.356.284.356s.08.053.08.124c0,.116.178.364.56.773.08.089.124.169.1.169s.036.107.133.249.356.48.56.773c.133.2.276.391.427.578.027.027.2.249.356.489a2.059,2.059,0,0,0,.373.471.208.208,0,0,1,.071.16c0,.071.027.124.071.124s.16.16.284.356.258.356.3.356.062.027.027.053.08.222.231.427.507.693.773,1.067l.489.685.044-7.272c.036-5.8.071-7.325.16-7.538a3.637,3.637,0,0,0,.16-.436,4.836,4.836,0,0,1,.809-1.493,4.617,4.617,0,0,1,1.778-1.44,5.187,5.187,0,0,1,6.018.907,5.525,5.525,0,0,1,1.245,1.733.5.5,0,0,0,.062.2c.231.382.249,1.111.267,8.89.018,7.61.009,8.223-.133,8.756-.089.32-.178.649-.2.747a9.711,9.711,0,0,1-.524,1.476,6.03,6.03,0,0,1-.587,1.067,1.358,1.358,0,0,0-.169.267,12.185,12.185,0,0,1-3.467,3.36,10.294,10.294,0,0,1-5.289,1.493C54.742,59.85,54.147,59.85,54.093,59.832Z" transform="translate(-3.687)" fill="#4cb2cf"></path>
  </g>
</svg>
