<svg width="312" height="60" viewBox="0 0 312 60" fill="none" xmlns="http://www.w3.org/2000/svg">
<path d="M51.2135 21.7694V5.36306C51.2135 2.4164 53.5957 0.0276567 56.5344 0.0276567H81.4095C91.3357 0.0276567 99.5932 3.0517 105.393 8.6904C111.197 14.3327 114.016 22.0878 114 30.5166C113.983 38.8926 110.854 46.3462 105.199 51.6852C99.5629 57.0068 91.7538 59.9176 82.8728 59.9176H70.5017C67.5631 59.9176 65.1809 57.5288 65.1808 54.5822C65.1808 51.6355 67.5631 49.2468 70.5017 49.2468H82.8728C89.4222 49.2468 94.5024 47.1283 97.9045 43.9163C101.288 40.7218 103.347 36.1372 103.358 30.4955C103.37 24.488 101.401 19.6716 97.9856 16.3514C94.5667 13.0277 89.1753 10.6985 81.4095 10.6985H61.8553V21.7694C61.8552 24.7161 59.473 27.1048 56.5344 27.1048C53.5958 27.1048 51.2135 24.7161 51.2135 21.7694Z" fill="#013D79"/>
<path d="M0 53.7819V10.4317C0 5.27915 3.55918 1.80627 7.26321 0.568231C10.8858 -0.642575 15.6762 -0.0674796 18.8018 3.74994L18.9494 3.93412L19.0175 4.02088L19.0819 4.11075L51.2135 48.8102V36.7086C51.2135 33.7619 53.5957 31.3732 56.5344 31.3732C59.473 31.3732 61.8553 33.7619 61.8553 36.7086V48.9454C61.8553 54.2252 58.9535 58.5609 54.133 59.7193C49.7852 60.7642 45.2807 58.8165 42.6362 55.1272L10.6833 10.6763C10.6699 10.6794 10.656 10.6829 10.6418 10.6873V53.7819C10.6418 56.7285 8.25952 59.1173 5.32088 59.1173C2.38225 59.1173 1.53574e-05 56.7285 0 53.7819Z" fill="#4EB3D1"/>
<path d="M300.851 55.88C299.15 55.88 297.419 55.6454 295.659 55.176C293.899 54.7654 292.345 54.0907 290.995 53.152C290.291 52.5067 289.939 51.8027 289.939 51.04C289.939 50.2774 290.233 49.6027 290.819 49.016C291.465 48.4294 292.169 48.136 292.931 48.136C293.342 48.136 293.753 48.2534 294.163 48.488C295.219 49.1334 296.422 49.6614 297.771 50.072C299.179 50.424 300.499 50.6 301.731 50.6C302.905 50.6 303.902 50.3947 304.723 49.984C305.603 49.5734 306.043 48.8987 306.043 47.96C306.043 47.0214 305.633 46.3174 304.811 45.848C303.99 45.3787 302.582 45.0267 300.587 44.792C299.766 44.6747 298.769 44.528 297.595 44.352C296.481 44.176 295.366 43.8534 294.251 43.384C293.137 42.9147 292.198 42.2107 291.435 41.272C290.673 40.3334 290.291 39.072 290.291 37.488C290.291 34.9067 291.23 32.8534 293.107 31.328C295.043 29.8027 297.625 29.04 300.851 29.04C302.729 29.04 304.489 29.2747 306.131 29.744C307.833 30.2134 309.094 30.8 309.915 31.504C310.561 32.032 310.883 32.648 310.883 33.352C310.883 34.1147 310.619 34.7894 310.091 35.376C309.563 35.9627 308.918 36.256 308.155 36.256C307.745 36.256 307.363 36.168 307.011 35.992C306.073 35.464 305.017 35.0827 303.843 34.848C302.729 34.5547 301.643 34.408 300.587 34.408C299.355 34.408 298.299 34.6134 297.419 35.024C296.598 35.376 296.187 35.9627 296.187 36.784C296.187 37.3707 296.422 37.8987 296.891 38.368C297.419 38.7787 298.739 39.1307 300.851 39.424C301.849 39.5414 302.963 39.7174 304.195 39.952C305.486 40.1867 306.718 40.568 307.891 41.096C309.065 41.5654 310.033 42.328 310.795 43.384C311.558 44.44 311.939 45.8774 311.939 47.696C311.939 49.5734 311.411 51.128 310.355 52.36C309.299 53.5334 307.921 54.4134 306.219 55C304.577 55.5867 302.787 55.88 300.851 55.88Z" fill="#013D79"/>
<path d="M274.455 55.88C270.055 55.88 266.623 54.6187 264.159 52.096C261.695 49.5734 260.463 46.1707 260.463 41.888C260.463 38.1334 261.695 35.0534 264.159 32.648C266.682 30.2427 269.908 29.04 273.839 29.04C277.652 29.04 280.703 30.1547 282.991 32.384C285.279 34.5547 286.423 37.2534 286.423 40.48C286.423 41.7707 286.071 42.7387 285.367 43.384C284.722 44.0294 283.871 44.352 282.815 44.352H267.503C266.916 44.352 266.711 44.6747 266.887 45.32C267.356 46.9627 268.295 48.2534 269.703 49.192C271.17 50.072 272.812 50.512 274.631 50.512C275.98 50.512 277.271 50.336 278.503 49.984C279.794 49.632 280.908 49.104 281.847 48.4C282.14 48.1654 282.522 48.048 282.991 48.048C283.636 48.048 284.223 48.3414 284.751 48.928C285.279 49.456 285.543 50.1014 285.543 50.864C285.543 51.216 285.484 51.568 285.367 51.92C285.25 52.272 284.986 52.624 284.575 52.976C283.05 54.0907 281.407 54.8534 279.647 55.264C277.946 55.6747 276.215 55.88 274.455 55.88ZM279.559 39.776C279.911 39.776 280.087 39.6 280.087 39.248C280.087 37.8987 279.471 36.7254 278.239 35.728C277.066 34.7307 275.599 34.232 273.839 34.232C272.314 34.232 270.847 34.6427 269.439 35.464C268.09 36.2854 267.268 37.3707 266.975 38.72C266.975 38.72 266.975 38.7494 266.975 38.808C266.916 39.0427 266.887 39.248 266.887 39.424C266.946 39.6 267.21 39.688 267.679 39.688L279.559 39.776Z" fill="#013D79"/>
<path d="M251.026 55.8799C248.738 55.8799 246.861 55.1759 245.394 53.7679C243.928 52.3599 243.194 50.2479 243.194 47.4319V36.2559C243.194 35.6693 242.901 35.3759 242.314 35.3759H240.73C239.968 35.3759 239.322 35.1413 238.794 34.6719C238.266 34.1439 238.002 33.4986 238.002 32.7359C238.002 31.9146 238.266 31.2399 238.794 30.7119C239.322 30.1839 239.968 29.9199 240.73 29.9199H242.314C242.901 29.9199 243.194 29.6266 243.194 29.0399V21.6479C243.194 20.8266 243.458 20.1813 243.986 19.7119C244.573 19.1839 245.277 18.9199 246.098 18.9199C246.978 18.9199 247.682 19.1839 248.21 19.7119C248.797 20.1813 249.09 20.8266 249.09 21.6479V29.0399C249.09 29.6266 249.384 29.9199 249.97 29.9199H254.722C255.426 29.9199 256.042 30.1839 256.57 30.7119C257.098 31.2399 257.362 31.9146 257.362 32.7359C257.362 33.4986 257.098 34.1439 256.57 34.6719C256.101 35.1413 255.456 35.3759 254.634 35.3759H249.97C249.384 35.3759 249.09 35.6693 249.09 36.2559V46.6399C249.09 49.1039 250.088 50.3359 252.082 50.3359C252.669 50.3359 253.285 50.2479 253.93 50.0719C254.576 49.8959 255.016 49.8079 255.25 49.8079C256.072 49.8079 256.688 50.0719 257.098 50.5999C257.568 51.1279 257.802 51.7439 257.802 52.4479C257.802 52.9759 257.656 53.5039 257.362 54.0319C257.069 54.5013 256.6 54.8533 255.954 55.0879C255.309 55.3226 254.488 55.4986 253.49 55.6159C252.552 55.7919 251.73 55.8799 251.026 55.8799Z" fill="#013D79"/>
<path d="M220.723 55.88C218.201 55.88 215.942 55.2934 213.947 54.12C211.953 52.9467 210.398 51.3334 209.283 49.28C208.169 47.168 207.611 44.8214 207.611 42.24C207.611 39.7174 208.169 37.4587 209.283 35.464C210.398 33.4694 211.953 31.9147 213.947 30.8C215.942 29.6267 218.201 29.04 220.723 29.04C222.366 29.04 223.833 29.3334 225.123 29.92C226.414 30.448 227.529 31.152 228.467 32.032C228.585 31.2107 228.937 30.5947 229.523 30.184C230.11 29.7147 230.755 29.48 231.459 29.48C232.222 29.48 232.897 29.744 233.483 30.272C234.129 30.7414 234.451 31.4747 234.451 32.472V53.152C234.451 54.032 234.129 54.7067 233.483 55.176C232.897 55.6454 232.222 55.88 231.459 55.88C230.697 55.88 229.993 55.6454 229.347 55.176C228.761 54.7067 228.467 54.032 228.467 53.152V52.8C227.529 53.7387 226.414 54.472 225.123 55C223.833 55.5867 222.366 55.88 220.723 55.88ZM221.251 50.424C223.481 50.424 225.241 49.6907 226.531 48.224C227.822 46.6987 228.467 44.704 228.467 42.24C228.467 39.8934 227.822 38.016 226.531 36.608C225.241 35.2 223.481 34.496 221.251 34.496C218.963 34.496 217.115 35.2 215.707 36.608C214.299 38.016 213.595 39.8934 213.595 42.24C213.595 44.704 214.299 46.6987 215.707 48.224C217.115 49.6907 218.963 50.424 221.251 50.424Z" fill="#013D79"/>
<path d="M198.175 55.8799C195.887 55.8799 194.01 55.1759 192.543 53.7679C191.076 52.3599 190.343 50.2479 190.343 47.4319V36.2559C190.343 35.6693 190.05 35.3759 189.463 35.3759H187.879C187.116 35.3759 186.471 35.1413 185.943 34.6719C185.415 34.1439 185.151 33.4986 185.151 32.7359C185.151 31.9146 185.415 31.2399 185.943 30.7119C186.471 30.1839 187.116 29.9199 187.879 29.9199H189.463C190.05 29.9199 190.343 29.6266 190.343 29.0399V21.6479C190.343 20.8266 190.607 20.1813 191.135 19.7119C191.722 19.1839 192.426 18.9199 193.247 18.9199C194.127 18.9199 194.831 19.1839 195.359 19.7119C195.946 20.1813 196.239 20.8266 196.239 21.6479V29.0399C196.239 29.6266 196.532 29.9199 197.119 29.9199H201.871C202.575 29.9199 203.191 30.1839 203.719 30.7119C204.247 31.2399 204.511 31.9146 204.511 32.7359C204.511 33.4986 204.247 34.1439 203.719 34.6719C203.25 35.1413 202.604 35.3759 201.783 35.3759H197.119C196.532 35.3759 196.239 35.6693 196.239 36.2559V46.6399C196.239 49.1039 197.236 50.3359 199.231 50.3359C199.818 50.3359 200.434 50.2479 201.079 50.0719C201.724 49.8959 202.164 49.8079 202.399 49.8079C203.22 49.8079 203.836 50.0719 204.247 50.5999C204.716 51.1279 204.951 51.7439 204.951 52.4479C204.951 52.9759 204.804 53.5039 204.511 54.0319C204.218 54.5013 203.748 54.8533 203.103 55.0879C202.458 55.3226 201.636 55.4986 200.639 55.6159C199.7 55.7919 198.879 55.8799 198.175 55.8799Z" fill="#013D79"/>
<path d="M171.859 55.88C170.158 55.88 168.427 55.6454 166.667 55.176C164.907 54.7654 163.353 54.0907 162.003 53.152C161.299 52.5067 160.947 51.8027 160.947 51.04C160.947 50.2774 161.241 49.6027 161.827 49.016C162.473 48.4294 163.177 48.136 163.939 48.136C164.35 48.136 164.761 48.2534 165.171 48.488C166.227 49.1334 167.43 49.6614 168.779 50.072C170.187 50.424 171.507 50.6 172.739 50.6C173.913 50.6 174.91 50.3947 175.731 49.984C176.611 49.5734 177.051 48.8987 177.051 47.96C177.051 47.0214 176.641 46.3174 175.819 45.848C174.998 45.3787 173.59 45.0267 171.595 44.792C170.774 44.6747 169.777 44.528 168.603 44.352C167.489 44.176 166.374 43.8534 165.259 43.384C164.145 42.9147 163.206 42.2107 162.443 41.272C161.681 40.3334 161.299 39.072 161.299 37.488C161.299 34.9067 162.238 32.8534 164.115 31.328C166.051 29.8027 168.633 29.04 171.859 29.04C173.737 29.04 175.497 29.2747 177.139 29.744C178.841 30.2134 180.102 30.8 180.923 31.504C181.569 32.032 181.891 32.648 181.891 33.352C181.891 34.1147 181.627 34.7894 181.099 35.376C180.571 35.9627 179.926 36.256 179.163 36.256C178.753 36.256 178.371 36.168 178.019 35.992C177.081 35.464 176.025 35.0827 174.851 34.848C173.737 34.5547 172.651 34.408 171.595 34.408C170.363 34.408 169.307 34.6134 168.427 35.024C167.606 35.376 167.195 35.9627 167.195 36.784C167.195 37.3707 167.43 37.8987 167.899 38.368C168.427 38.7787 169.747 39.1307 171.859 39.424C172.857 39.5414 173.971 39.7174 175.203 39.952C176.494 40.1867 177.726 40.568 178.899 41.096C180.073 41.5654 181.041 42.328 181.803 43.384C182.566 44.44 182.947 45.8774 182.947 47.696C182.947 49.5734 182.419 51.128 181.363 52.36C180.307 53.5334 178.929 54.4134 177.227 55C175.585 55.5867 173.795 55.88 171.859 55.88Z" fill="#013D79"/>
<path d="M139.8 55C138.333 55 137.16 54.5601 136.28 53.68C135.4 52.8 134.96 51.6267 134.96 50.16V24.376C134.96 23.0267 135.4 21.9414 136.28 21.12C137.219 20.24 138.304 19.8 139.536 19.8H152.824C153.821 19.8 154.525 20.064 154.936 20.592C155.405 21.0614 155.64 21.6774 155.64 22.44C155.64 23.144 155.376 23.76 154.848 24.288C154.379 24.816 153.704 25.08 152.824 25.08H143.408C141.883 25.08 141.12 25.8427 141.12 27.368V32.208C141.12 33.7334 141.824 34.496 143.232 34.496H151.944C152.941 34.496 153.645 34.76 154.056 35.288C154.525 35.816 154.76 36.432 154.76 37.136C154.76 37.7814 154.496 38.3974 153.968 38.984C153.499 39.512 152.824 39.7761 151.944 39.7761H143.232C141.824 39.7761 141.12 40.5094 141.12 41.976V47.344C141.12 48.8694 141.853 49.632 143.32 49.632H153.704C154.701 49.632 155.405 49.9254 155.816 50.5121C156.285 51.0401 156.52 51.6561 156.52 52.3601C156.52 53.064 156.256 53.68 155.728 54.208C155.259 54.736 154.584 55 153.704 55H139.8Z" fill="#013D79"/>
</svg>
