<svg width="109" height="90" viewBox="0 0 109 90" fill="none" xmlns="http://www.w3.org/2000/svg">
<path d="M48.9673 20.6333V5.08317C48.9673 2.29029 51.2451 0.0262133 54.0548 0.0262133H77.8389C87.3297 0.0262133 95.2251 2.89244 100.771 8.23685C106.32 13.5847 109.016 20.9351 109 28.9239C108.984 36.8628 105.992 43.9274 100.585 48.9878C95.1961 54.0316 87.7295 56.7905 79.238 56.7905H67.4095C64.5998 56.7905 62.3221 54.5264 62.322 51.7336C62.322 48.9407 64.5998 46.6766 67.4095 46.6766H79.238C85.5002 46.6766 90.3576 44.6687 93.6105 41.6244C96.8456 38.5965 98.8143 34.2513 98.8249 28.9039C98.8362 23.21 96.9533 18.6449 93.688 15.4981C90.419 12.3478 85.2641 10.1401 77.8389 10.1401H59.1423V20.6333C59.1423 23.4262 56.8645 25.6903 54.0548 25.6903C51.2451 25.6903 48.9673 23.4262 48.9673 20.6333Z" fill="white"/>
<path d="M0 50.975V9.88727C0 5.00364 3.40308 1.712 6.94465 0.538576C10.4084 -0.609039 14.9886 -0.0639577 17.9772 3.55423L18.1183 3.7288L18.1834 3.81103L18.245 3.89622L48.9673 46.2628V34.7928C48.9673 31.9999 51.2451 29.7358 54.0548 29.7358C56.8646 29.7358 59.1423 31.9999 59.1423 34.7928V46.3909C59.1423 51.3952 56.3678 55.5046 51.7587 56.6026C47.6016 57.5929 43.2947 55.7469 40.7662 52.2501L10.2148 10.1191C10.202 10.122 10.1886 10.1254 10.175 10.1295V50.975C10.175 53.7679 7.89726 56.032 5.08751 56.032C2.27777 56.032 1.46839e-05 53.7679 0 50.975Z" fill="white"/>
<path d="M101.809 90C100.769 90 99.7101 89.8567 98.6335 89.57C97.5569 89.3192 96.606 88.9071 95.7806 88.3338C95.3499 87.9397 95.1346 87.5097 95.1346 87.0439C95.1346 86.578 95.314 86.166 95.6729 85.8077C96.0677 85.4493 96.4983 85.2702 96.9648 85.2702C97.216 85.2702 97.4672 85.3418 97.7184 85.4852C98.3644 85.8793 99.1 86.2018 99.9254 86.4526C100.787 86.6676 101.594 86.7751 102.348 86.7751C103.065 86.7751 103.676 86.6497 104.178 86.3989C104.716 86.1481 104.985 85.736 104.985 85.1627C104.985 84.5894 104.734 84.1594 104.232 83.8727C103.729 83.5861 102.868 83.3711 101.648 83.2278C101.146 83.1561 100.535 83.0665 99.8178 82.959C99.1359 82.8515 98.4541 82.6545 97.7723 82.3678C97.0904 82.0811 96.5162 81.6512 96.0497 81.0778C95.5832 80.5045 95.3499 79.7342 95.3499 78.7667C95.3499 77.1901 95.9241 75.936 97.0725 75.0043C98.2567 74.0727 99.8357 73.6069 101.809 73.6069C102.958 73.6069 104.034 73.7502 105.039 74.0369C106.08 74.3235 106.851 74.6819 107.354 75.1118C107.749 75.4343 107.946 75.8106 107.946 76.2406C107.946 76.7064 107.785 77.1184 107.462 77.4767C107.139 77.8351 106.744 78.0142 106.277 78.0142C106.026 78.0142 105.793 77.9605 105.578 77.853C105.003 77.5305 104.357 77.2976 103.64 77.1543C102.958 76.9751 102.294 76.8855 101.648 76.8855C100.894 76.8855 100.248 77.0109 99.7101 77.2618C99.2077 77.4767 98.9565 77.8351 98.9565 78.3367C98.9565 78.695 99.1 79.0175 99.3871 79.3042C99.7101 79.555 100.518 79.77 101.809 79.9492C102.42 80.0208 103.101 80.1283 103.855 80.2716C104.644 80.415 105.398 80.6479 106.116 80.9704C106.834 81.257 107.426 81.7228 107.892 82.3678C108.359 83.0128 108.592 83.8907 108.592 85.0014C108.592 86.1481 108.269 87.0976 107.623 87.8501C106.977 88.5667 106.134 89.1042 105.093 89.4625C104.088 89.8208 102.994 90 101.809 90Z" fill="white"/>
<path d="M85.6627 90C82.9713 90 80.8719 89.2296 79.3647 87.6888C77.8575 86.1481 77.1039 84.0698 77.1039 81.4541C77.1039 79.1608 77.8575 77.2797 79.3647 75.8106C80.9078 74.3415 82.8816 73.6069 85.2859 73.6069C87.6185 73.6069 89.4846 74.2877 90.8842 75.6493C92.2838 76.9751 92.9835 78.6234 92.9835 80.5941C92.9835 81.3824 92.7682 81.9736 92.3376 82.3678C91.9428 82.7619 91.4225 82.959 90.7765 82.959H81.4102C81.0514 82.959 80.9258 83.1561 81.0334 83.5502C81.3205 84.5535 81.8947 85.3418 82.756 85.9152C83.6531 86.4526 84.6579 86.7214 85.7704 86.7214C86.5958 86.7214 87.3853 86.6139 88.1389 86.3989C88.9284 86.1839 89.6102 85.8614 90.1844 85.4314C90.3638 85.2881 90.5971 85.2164 90.8842 85.2164C91.2789 85.2164 91.6378 85.3956 91.9608 85.7539C92.2838 86.0764 92.4452 86.4705 92.4452 86.9364C92.4452 87.1513 92.4094 87.3663 92.3376 87.5813C92.2658 87.7963 92.1043 88.0113 91.8531 88.2263C90.9201 88.9071 89.9153 89.3729 88.8387 89.6237C87.798 89.8746 86.7393 90 85.6627 90ZM88.7848 80.1641C89.0002 80.1641 89.1078 80.0566 89.1078 79.8417C89.1078 79.0175 88.731 78.3009 87.9774 77.6917C87.2597 77.0826 86.3625 76.778 85.2859 76.778C84.3529 76.778 83.4557 77.0288 82.5945 77.5305C81.7691 78.0321 81.2667 78.695 81.0872 79.5192C81.0872 79.5192 81.0872 79.5371 81.0872 79.5729C81.0514 79.7162 81.0334 79.8417 81.0334 79.9492C81.0693 80.0566 81.2308 80.1104 81.5179 80.1104L88.7848 80.1641Z" fill="white"/>
<path d="M71.3312 90C69.9317 90 68.7833 89.57 67.8862 88.7101C66.989 87.8501 66.5404 86.5601 66.5404 84.8402V78.0142C66.5404 77.6559 66.361 77.4768 66.0021 77.4768H65.0332C64.5667 77.4768 64.1719 77.3334 63.8489 77.0468C63.526 76.7243 63.3645 76.3301 63.3645 75.8643C63.3645 75.3627 63.526 74.9506 63.8489 74.6281C64.1719 74.3056 64.5667 74.1444 65.0332 74.1444H66.0021C66.361 74.1444 66.5404 73.9652 66.5404 73.6069V69.0921C66.5404 68.5905 66.7019 68.1963 67.0249 67.9097C67.3837 67.5872 67.8144 67.4259 68.3168 67.4259C68.8551 67.4259 69.2857 67.5872 69.6087 67.9097C69.9675 68.1963 70.147 68.5905 70.147 69.0921V73.6069C70.147 73.9652 70.3264 74.1444 70.6853 74.1444H73.5921C74.0227 74.1444 74.3995 74.3056 74.7225 74.6281C75.0455 74.9506 75.2069 75.3627 75.2069 75.8643C75.2069 76.3301 75.0455 76.7243 74.7225 77.0468C74.4354 77.3334 74.0406 77.4768 73.5382 77.4768H70.6853C70.3264 77.4768 70.147 77.6559 70.147 78.0142V84.3565C70.147 85.8614 70.7571 86.6139 71.9772 86.6139C72.336 86.6139 72.7128 86.5602 73.1076 86.4527C73.5023 86.3452 73.7715 86.2914 73.915 86.2914C74.4175 86.2914 74.7943 86.4527 75.0455 86.7751C75.3325 87.0976 75.4761 87.4739 75.4761 87.9038C75.4761 88.2263 75.3864 88.5488 75.2069 88.8713C75.0275 89.158 74.7404 89.3729 74.3457 89.5163C73.9509 89.6596 73.4485 89.7671 72.8385 89.8388C72.2643 89.9463 71.7619 90 71.3312 90Z" fill="white"/>
<path d="M52.7953 90C51.2522 90 49.8706 89.6417 48.6504 88.925C47.4303 88.2084 46.4793 87.223 45.7975 85.9689C45.1156 84.679 44.7747 83.2457 44.7747 81.6691C44.7747 80.1283 45.1156 78.7488 45.7975 77.5305C46.4793 76.3122 47.4303 75.3627 48.6504 74.6819C49.8706 73.9652 51.2522 73.6069 52.7953 73.6069C53.8001 73.6069 54.6972 73.7861 55.4867 74.1444C56.2762 74.4669 56.9581 74.8969 57.5323 75.4343C57.604 74.9327 57.8194 74.5564 58.1782 74.3056C58.5371 74.019 58.9318 73.8756 59.3625 73.8756C59.829 73.8756 60.2417 74.0369 60.6005 74.3594C60.9953 74.646 61.1927 75.0939 61.1927 75.7031V88.3338C61.1927 88.8713 60.9953 89.2833 60.6005 89.57C60.2417 89.8567 59.829 90 59.3625 90C58.8959 90 58.4653 89.8567 58.0706 89.57C57.7117 89.2833 57.5323 88.8713 57.5323 88.3338V88.1188C56.9581 88.6921 56.2762 89.14 55.4867 89.4625C54.6972 89.8208 53.8001 90 52.7953 90ZM53.1183 86.6676C54.4819 86.6676 55.5585 86.2197 56.348 85.3239C57.1375 84.3923 57.5323 83.174 57.5323 81.6691C57.5323 80.2358 57.1375 79.0892 56.348 78.2292C55.5585 77.3693 54.4819 76.9393 53.1183 76.9393C51.7187 76.9393 50.5883 77.3693 49.727 78.2292C48.8657 79.0892 48.4351 80.2358 48.4351 81.6691C48.4351 83.174 48.8657 84.3923 49.727 85.3239C50.5883 86.2197 51.7187 86.6676 53.1183 86.6676Z" fill="white"/>
<path d="M39.0021 90C37.6025 90 36.4541 89.57 35.557 88.7101C34.6598 87.8501 34.2112 86.5601 34.2112 84.8402V78.0142C34.2112 77.6559 34.0318 77.4768 33.673 77.4768H32.704C32.2375 77.4768 31.8428 77.3334 31.5198 77.0468C31.1968 76.7243 31.0353 76.3301 31.0353 75.8643C31.0353 75.3627 31.1968 74.9506 31.5198 74.6281C31.8428 74.3056 32.2375 74.1444 32.704 74.1444H33.673C34.0318 74.1444 34.2112 73.9652 34.2112 73.6069V69.0921C34.2112 68.5905 34.3727 68.1963 34.6957 67.9097C35.0546 67.5872 35.4852 67.4259 35.9876 67.4259C36.5259 67.4259 36.9565 67.5872 37.2795 67.9097C37.6384 68.1963 37.8178 68.5905 37.8178 69.0921V73.6069C37.8178 73.9652 37.9972 74.1444 38.3561 74.1444H41.2629C41.6935 74.1444 42.0703 74.3056 42.3933 74.6281C42.7163 74.9506 42.8778 75.3627 42.8778 75.8643C42.8778 76.3301 42.7163 76.7243 42.3933 77.0468C42.1062 77.3334 41.7115 77.4768 41.2091 77.4768H38.3561C37.9972 77.4768 37.8178 77.6559 37.8178 78.0142V84.3565C37.8178 85.8614 38.4279 86.6139 39.648 86.6139C40.0069 86.6139 40.3837 86.5602 40.7784 86.4527C41.1732 86.3452 41.4423 86.2914 41.5859 86.2914C42.0883 86.2914 42.4651 86.4527 42.7163 86.7751C43.0034 87.0976 43.1469 87.4739 43.1469 87.9038C43.1469 88.2263 43.0572 88.5488 42.8778 88.8713C42.6983 89.158 42.4113 89.3729 42.0165 89.5163C41.6218 89.6596 41.1193 89.7671 40.5093 89.8388C39.9351 89.9463 39.4327 90 39.0021 90Z" fill="white"/>
<path d="M22.9053 90C21.8646 90 20.8059 89.8567 19.7293 89.57C18.6527 89.3192 17.7017 88.9071 16.8764 88.3338C16.4457 87.9397 16.2304 87.5097 16.2304 87.0439C16.2304 86.578 16.4098 86.166 16.7687 85.8077C17.1635 85.4493 17.5941 85.2702 18.0606 85.2702C18.3118 85.2702 18.563 85.3418 18.8142 85.4852C19.4602 85.8793 20.1958 86.2018 21.0212 86.4526C21.8825 86.6676 22.6899 86.7751 23.4436 86.7751C24.1613 86.7751 24.7713 86.6497 25.2737 86.3989C25.812 86.1481 26.0812 85.736 26.0812 85.1627C26.0812 84.5894 25.83 84.1594 25.3276 83.8727C24.8252 83.5861 23.9639 83.3711 22.7438 83.2278C22.2414 83.1561 21.6313 83.0665 20.9136 82.959C20.2317 82.8515 19.5499 82.6545 18.8681 82.3678C18.1862 82.0811 17.612 81.6512 17.1455 81.0778C16.679 80.5045 16.4457 79.7342 16.4457 78.7667C16.4457 77.1901 17.0199 75.936 18.1683 75.0043C19.3525 74.0727 20.9315 73.6069 22.9053 73.6069C24.0536 73.6069 25.1302 73.7502 26.135 74.0369C27.1757 74.3235 27.9473 74.6819 28.4497 75.1118C28.8444 75.4343 29.0418 75.8106 29.0418 76.2406C29.0418 76.7064 28.8803 77.1184 28.5573 77.4767C28.2344 77.8351 27.8396 78.0142 27.3731 78.0142C27.1219 78.0142 26.8886 77.9605 26.6733 77.853C26.0991 77.5305 25.4532 77.2976 24.7355 77.1543C24.0536 76.9751 23.3897 76.8855 22.7438 76.8855C21.9902 76.8855 21.3442 77.0109 20.8059 77.2618C20.3035 77.4767 20.0523 77.8351 20.0523 78.3367C20.0523 78.695 20.1958 79.0175 20.4829 79.3042C20.8059 79.555 21.6133 79.77 22.9053 79.9492C23.5153 80.0208 24.1972 80.1283 24.9508 80.2716C25.7403 80.415 26.4939 80.6479 27.2116 80.9704C27.9293 81.257 28.5215 81.7228 28.988 82.3678C29.4545 83.0128 29.6878 83.8907 29.6878 85.0014C29.6878 86.1481 29.3648 87.0976 28.7188 87.8501C28.0729 88.5667 27.2295 89.1042 26.1888 89.4625C25.184 89.8208 24.0895 90 22.9053 90Z" fill="white"/>
<path d="M3.29434 89.4625C2.39718 89.4625 1.67945 89.1938 1.14116 88.6563C0.602867 88.1189 0.33372 87.4022 0.33372 86.5064V70.7583C0.33372 69.9342 0.602867 69.2713 1.14116 68.7696C1.71534 68.2322 2.37924 67.9634 3.13285 67.9634H11.2611C11.8712 67.9634 12.3018 68.1247 12.553 68.4472C12.8401 68.7338 12.9836 69.11 12.9836 69.5759C12.9836 70.0058 12.8221 70.3821 12.4992 70.7046C12.2121 71.0271 11.7994 71.1883 11.2611 71.1883H5.50134C4.5683 71.1883 4.10178 71.6541 4.10178 72.5857V75.5419C4.10178 76.4735 4.53241 76.9393 5.39368 76.9393H10.7228C11.3329 76.9393 11.7635 77.1006 12.0147 77.423C12.3018 77.7455 12.4453 78.1218 12.4453 78.5517C12.4453 78.9459 12.2838 79.3221 11.9609 79.6804C11.6738 80.0029 11.2611 80.1642 10.7228 80.1642H5.39368C4.53241 80.1642 4.10178 80.6121 4.10178 81.5079V84.7865C4.10178 85.7181 4.55036 86.1839 5.44751 86.1839H11.7994C12.4094 86.1839 12.8401 86.3631 13.0913 86.7214C13.3784 87.0439 13.5219 87.4201 13.5219 87.8501C13.5219 88.2801 13.3604 88.6563 13.0375 88.9788C12.7504 89.3013 12.3377 89.4625 11.7994 89.4625H3.29434Z" fill="white"/>
</svg>
