<svg width="20" height="20" viewBox="0 0 20 20" fill="none" xmlns="http://www.w3.org/2000/svg">
<path d="M15.3034 3.86334C16.6803 5.24012 17.4678 7.09844 17.4994 9.04535C17.531 10.9923 16.8041 12.8751 15.4725 14.2958L15.3034 14.4708L11.7675 18.0058C11.3189 18.4542 10.7166 18.7153 10.0827 18.7362C9.44874 18.757 8.83057 18.5362 8.35338 18.1183L8.23338 18.0058L4.69671 14.47C3.29018 13.0635 2.5 11.1558 2.5 9.16667C2.5 7.17754 3.29018 5.26987 4.69671 3.86334C6.10324 2.45681 8.01091 1.66663 10 1.66663C11.9892 1.66663 13.8968 2.45681 15.3034 3.86334ZM10 6.66667C9.67174 6.66667 9.34665 6.73134 9.04334 6.85697C8.74002 6.98261 8.46443 7.16676 8.23228 7.3989C8.00013 7.63105 7.81598 7.90665 7.69035 8.20996C7.56471 8.51328 7.50005 8.83837 7.50005 9.16667C7.50005 9.49498 7.56471 9.82007 7.69035 10.1234C7.81598 10.4267 8.00013 10.7023 8.23228 10.9344C8.46443 11.1666 8.74002 11.3507 9.04334 11.4764C9.34665 11.602 9.67174 11.6667 10 11.6667C10.6631 11.6667 11.299 11.4033 11.7678 10.9344C12.2367 10.4656 12.5 9.82971 12.5 9.16667C12.5 8.50363 12.2367 7.86775 11.7678 7.3989C11.299 6.93006 10.6631 6.66667 10 6.66667Z" fill="currentColor"/>
</svg>
