<svg xmlns="http://www.w3.org/2000/svg" width="150.189" height="150.168" viewBox="0 0 150.189 150.168"><g transform="translate(-100.687 -236)"><g transform="translate(100.687 236)"><path d="M38.5,68.851A2.347,2.347,0,0,0,40.851,66.5V38.347A2.347,2.347,0,0,0,38.5,36H10.347A2.347,2.347,0,0,0,8,38.347V66.5a2.347,2.347,0,0,0,2.347,2.347ZM26.772,40.693h9.386v9.386H26.772Zm0,14.079h9.386v9.386H26.772ZM12.693,40.693h9.386v9.386H12.693Zm0,14.079h9.386v9.386H12.693Z" transform="translate(10.772 48.466)" fill="#013d79"/><path d="M72.5,68.851A2.347,2.347,0,0,0,74.851,66.5V38.347A2.347,2.347,0,0,0,72.5,36H44.347A2.347,2.347,0,0,0,42,38.347V66.5a2.347,2.347,0,0,0,2.347,2.347ZM60.772,40.693h9.386v9.386H60.772Zm0,14.079h9.386v9.386H60.772ZM46.693,40.693h9.386v9.386H46.693Zm0,14.079h9.386v9.386H46.693Z" transform="translate(56.554 48.466)" fill="#013d79"/><path d="M143.137,65.7a7.04,7.04,0,0,0,7.04-7.04V53.965a7.04,7.04,0,0,0-7.04-7.04h-3.919L76.5.464a2.347,2.347,0,0,0-2.792,0L10.958,46.925H7.04A7.04,7.04,0,0,0,0,53.965v4.693A7.04,7.04,0,0,0,7.04,65.7H9.386V124.36a2.347,2.347,0,1,0,4.693,0V65.7h96.207a2.347,2.347,0,0,0,0-4.693H7.04a2.347,2.347,0,0,1-2.347-2.347V53.965A2.347,2.347,0,0,1,7.04,51.618h136.1a2.347,2.347,0,0,1,2.347,2.347v4.693A2.347,2.347,0,0,1,143.137,61H119.672a2.347,2.347,0,0,0,0,4.693H136.1v61.286c-.293.063-.589.108-.88.195a13.924,13.924,0,0,0-10.853-5.165,14.121,14.121,0,0,0-13.319,9.52,9.4,9.4,0,0,0-7.8,9.252,9.29,9.29,0,0,0,1.3,4.693H93.861V91.509a7.04,7.04,0,0,0-7.04-7.04H63.356a7.04,7.04,0,0,0-7.04,7.04v53.97H40.933a9.29,9.29,0,0,0,1.3-4.693,9.386,9.386,0,0,0-9.386-9.386,8.967,8.967,0,0,0-2.177.268,11.688,11.688,0,0,0-19.113,0,8.964,8.964,0,0,0-2.175-.268,9.386,9.386,0,0,0,0,18.772H138.444a11.733,11.733,0,0,0,2.347-23.231V65.7ZM18.843,46.925,75.088,5.263l56.246,41.662Zm9.316,98.554H9.386a4.693,4.693,0,0,1,0-9.386,4.613,4.613,0,0,1,2.133.547,2.346,2.346,0,0,0,3.21-1.11,7.007,7.007,0,0,1,12.779,0,2.346,2.346,0,0,0,3.21,1.11,4.681,4.681,0,1,1,2.133,8.839Zm32.851,0V91.509a2.347,2.347,0,0,1,2.347-2.347H86.821a2.347,2.347,0,0,1,2.347,2.347v53.97Zm84.475-7.04a7.04,7.04,0,0,1-7.04,7.04H112.633a4.694,4.694,0,0,1-.211-9.386c.077.012.263.031.343.033a2.328,2.328,0,0,0,2.4-1.877,9.407,9.407,0,0,1,9.2-7.542,9.305,9.305,0,0,1,7.989,4.536,2.346,2.346,0,0,0,3.035.891,6.927,6.927,0,0,1,3.055-.734,7.04,7.04,0,0,1,7.04,7.04Z" transform="translate(0 -0.004)" fill="#013d79"/><circle cx="2.163" cy="2.163" r="2.163" transform="translate(82.176 117.642)" fill="#013d79"/></g></g></svg>