<?xml version="1.0" encoding="UTF-8"?>
<svg
   viewBox="0 0 639.00895 603.99998"
   xmlns="http://www.w3.org/2000/svg">
  <path
     d="m 0.35636126,595.04029 c 0,-10.652 17.73899974,-102.2 20.74499974,-107.07 1.0712,-1.7332 3.732,-12.96 5.9128,-24.948 5.0873,-27.966 14.467,-58.013 19.987,-64.032 2.3734,-2.5875 23.671,-8.7381 47.328,-13.668 72.674989,-15.145 104.699989,-26.81 120.519989,-43.893 7.5375,-8.1425 18.937,-16.629 25.333,-18.858 10.161,-3.5423 11.628,-5.796 11.628,-17.864 0,-7.5955 -2.3217,-17.141 -5.1592,-21.213 -2.8375,-4.0716 -6.4075,-15.003 -7.9334,-24.292 -1.5258,-9.2888 -5.9597,-19.91 -9.853,-23.603 -3.8933,-3.6927 -7.0788,-8.4055 -7.0788,-10.473 0,-2.0674 -3.7999,-8.8984 -8.4443,-15.18 -7.203,-9.7425 -8.5135,-16.478 -8.9148,-45.823 -0.77522,-56.693 4.0846,-82.635998 19.961,-106.549998 22.417,-33.773004 65.708,-57.16400437 106,-57.27200437 15.742,-0.0422 22.356,1.78299997 28.966,7.99299997 4.9917,4.6894004 16.722,9.3370004 28.112,11.1370004 22.66,3.5821 43.04,17.972 52.934,37.378004 4.9747,9.7559 6.5634,22.121 6.5678,51.115998 0.003,21.443 1.6548,39.266 3.7588,40.567 10.206,6.3073 0.68497,49.886 -15.325,70.15 -6.0204,7.6196 -10.983,16.908 -11.028,20.642 -0.0453,3.7334 -3.4231,14.15 -7.5061,23.148 -13.56,29.884 -8.894,59.461 10.426,66.082 3.6001,1.2337 12.457,9.8437 19.681,19.133 7.2246,9.2897 17.358,17.845 22.518,19.011 5.1604,1.1666 28.303,9.5558 51.427,18.643 23.125,9.0871 43.172,16.522 44.55,16.522 1.3776,0 9.8207,4.6444 18.762,10.321 15.98,10.144 24.123,23.685 24.123,40.112 0,4.416 3.4924,14.719 7.7608,22.896 6.8691,13.159 11.544,38.395 21.007,113.38 l 2.0126,15.95 H 0.35456126 v -9.4442 z"
     fill="#bfbfbf"
     id="path2" />
</svg>
