<svg width="28" height="28" viewBox="0 0 28 28" fill="none" xmlns="http://www.w3.org/2000/svg">
<path d="M25.6666 4.67835C24.5 5.25002 23.3566 5.48218 22.1666 5.83335C20.8588 4.35752 18.9198 4.27585 17.0566 4.97352C15.1935 5.67118 13.9731 7.37685 14 9.33335V10.5C10.2141 10.5968 6.84248 8.87252 4.66665 5.83335C4.66665 5.83335 -0.212354 14.5052 9.33331 18.6667C7.14931 20.1215 4.97115 21.1027 2.33331 21C6.19265 23.1035 10.3985 23.8268 14.0396 22.7698C18.2163 21.5565 21.6486 18.4263 22.9658 13.7375C23.3587 12.3115 23.5538 10.8382 23.5456 9.35902C23.5456 9.06852 25.3073 6.12502 25.6666 4.67718V4.67835Z" stroke="currentColor" stroke-width="1.5" stroke-linecap="round" stroke-linejoin="round"/>
</svg>
