<svg width="28" height="28" viewBox="0 0 28 28" fill="none" xmlns="http://www.w3.org/2000/svg">
<path d="M2.33331 9.33329C2.33331 8.09562 2.82498 6.90863 3.70015 6.03346C4.57532 5.15829 5.7623 4.66663 6.99998 4.66663H21C22.2377 4.66663 23.4246 5.15829 24.2998 6.03346C25.175 6.90863 25.6666 8.09562 25.6666 9.33329V18.6666C25.6666 19.9043 25.175 21.0913 24.2998 21.9665C23.4246 22.8416 22.2377 23.3333 21 23.3333H6.99998C5.7623 23.3333 4.57532 22.8416 3.70015 21.9665C2.82498 21.0913 2.33331 19.9043 2.33331 18.6666V9.33329Z" stroke="currentColor" stroke-width="1.5" stroke-linecap="round" stroke-linejoin="round"/>
<path d="M11.6666 10.5L17.5 14L11.6666 17.5V10.5Z" stroke="currentColor" stroke-width="1.5" stroke-linecap="round" stroke-linejoin="round"/>
</svg>
