<svg width="20" height="20" viewBox="0 0 20 20" fill="none" xmlns="http://www.w3.org/2000/svg">
<path d="M18.3327 14.1667V11.6667M18.3327 11.6667H1.66602M18.3327 11.6667H9.99935V7.50001H15.8327C16.4957 7.50001 17.1316 7.7634 17.6004 8.23224C18.0693 8.70108 18.3327 9.33697 18.3327 10V11.6667ZM1.66602 6.66668V14.1667M4.16602 7.50001C4.16602 7.94204 4.34161 8.36596 4.65417 8.67852C4.96673 8.99108 5.39065 9.16668 5.83268 9.16668C6.27471 9.16668 6.69863 8.99108 7.01119 8.67852C7.32375 8.36596 7.49935 7.94204 7.49935 7.50001C7.49935 7.05798 7.32375 6.63406 7.01119 6.3215C6.69863 6.00894 6.27471 5.83334 5.83268 5.83334C5.39065 5.83334 4.96673 6.00894 4.65417 6.3215C4.34161 6.63406 4.16602 7.05798 4.16602 7.50001Z" stroke="currentColor" vector-effect="non-scaling-stroke" stroke-linecap="round" stroke-linejoin="round"/>
</svg>
