<svg width="20" height="20" viewBox="0 0 20 20" fill="none" xmlns="http://www.w3.org/2000/svg">
<path d="M4.16667 14.1667C4.16667 14.6087 4.34226 15.0326 4.65482 15.3452C4.96738 15.6577 5.39131 15.8333 5.83333 15.8333C6.27536 15.8333 6.69928 15.6577 7.01184 15.3452C7.3244 15.0326 7.5 14.6087 7.5 14.1667M4.16667 14.1667C4.16667 13.7246 4.34226 13.3007 4.65482 12.9882C4.96738 12.6756 5.39131 12.5 5.83333 12.5C6.27536 12.5 6.69928 12.6756 7.01184 12.9882C7.3244 13.3007 7.5 13.7246 7.5 14.1667M4.16667 14.1667H2.5V9.16666M7.5 14.1667H12.5M12.5 14.1667C12.5 14.6087 12.6756 15.0326 12.9882 15.3452C13.3007 15.6577 13.7246 15.8333 14.1667 15.8333C14.6087 15.8333 15.0326 15.6577 15.3452 15.3452C15.6577 15.0326 15.8333 14.6087 15.8333 14.1667M12.5 14.1667C12.5 13.7246 12.6756 13.3007 12.9882 12.9882C13.3007 12.6756 13.7246 12.5 14.1667 12.5C14.6087 12.5 15.0326 12.6756 15.3452 12.9882C15.6577 13.3007 15.8333 13.7246 15.8333 14.1667M15.8333 14.1667H17.5V10.8333C17.5 10.3913 17.3244 9.96738 17.0118 9.65482C16.6993 9.34226 16.2754 9.16666 15.8333 9.16666H15M2.5 9.16666L4.16667 5H11.6667L15 9.16666M2.5 9.16666H15M10 9.16666V5" stroke="currentColor" vector-effect="non-scaling-stroke" stroke-linecap="round" stroke-linejoin="round"/>
</svg>
