<svg width="20" height="20" viewBox="0 0 20 20" fill="none" xmlns="http://www.w3.org/2000/svg">
<path d="M10 4.99998C10 5.44201 10.1756 5.86593 10.4882 6.17849C10.8007 6.49105 11.2246 6.66665 11.6667 6.66665C12.1087 6.66665 12.5326 6.49105 12.8452 6.17849C13.1577 5.86593 13.3333 5.44201 13.3333 4.99998M10 4.99998C10 4.55795 10.1756 4.13403 10.4882 3.82147C10.8007 3.50891 11.2246 3.33331 11.6667 3.33331C12.1087 3.33331 12.5326 3.50891 12.8452 3.82147C13.1577 4.13403 13.3333 4.55795 13.3333 4.99998M10 4.99998H3.33333M13.3333 4.99998H16.6667M5 9.99998C5 10.442 5.17559 10.8659 5.48815 11.1785C5.80071 11.4911 6.22464 11.6666 6.66667 11.6666C7.10869 11.6666 7.53262 11.4911 7.84518 11.1785C8.15774 10.8659 8.33333 10.442 8.33333 9.99998M5 9.99998C5 9.55795 5.17559 9.13403 5.48815 8.82147C5.80071 8.50891 6.22464 8.33331 6.66667 8.33331C7.10869 8.33331 7.53262 8.50891 7.84518 8.82147C8.15774 9.13403 8.33333 9.55795 8.33333 9.99998M5 9.99998H3.33333M8.33333 9.99998H16.6667M12.5 15C12.5 15.442 12.6756 15.8659 12.9882 16.1785C13.3007 16.4911 13.7246 16.6666 14.1667 16.6666C14.6087 16.6666 15.0326 16.4911 15.3452 16.1785C15.6577 15.8659 15.8333 15.442 15.8333 15M12.5 15C12.5 14.558 12.6756 14.134 12.9882 13.8215C13.3007 13.5089 13.7246 13.3333 14.1667 13.3333C14.6087 13.3333 15.0326 13.5089 15.3452 13.8215C15.6577 14.134 15.8333 14.558 15.8333 15M12.5 15H3.33333M15.8333 15H16.6667" stroke="currentColor" stroke-linecap="round" stroke-linejoin="round" vector-effect="non-scaling-stroke"/>
</svg>
