<svg width="24" height="24" viewBox="0 0 24 24" fill="none" xmlns="http://www.w3.org/2000/svg">
<path d="M17.0004 18.5C16.216 18.8595 15.3633 19.0456 14.5004 19.0456C13.6375 19.0456 12.7848 18.8595 12.0004 18.5C11.1804 18.2169 10.3087 18.115 9.44553 18.2014C8.58233 18.2877 7.74812 18.5602 7.00039 19C7.53581 18.8147 8.00781 18.4815 8.36176 18.0391C8.7157 17.5967 8.93712 17.063 9.00039 16.5V9.00001C9.00567 8.12393 9.29842 7.27383 9.83368 6.58026C10.3689 5.8867 11.1171 5.38805 11.9632 5.1609C12.8093 4.93375 13.7066 4.99067 14.5173 5.32292C15.3279 5.65517 16.0071 6.24437 16.4504 7.00001M13.9004 13H6.90039" stroke="currentColor" vector-effect="non-scaling-stroke" stroke-width="1.5" stroke-linecap="round" stroke-linejoin="round"/>
</svg>
