<svg xmlns="http://www.w3.org/2000/svg" width="116.248" height="17.451" viewBox="0 0 116.248 17.451"><path d="M1.9,19.451v-2.37h8.725v2.37ZM20,6.4A5.126,5.126,0,0,0,17.7,4.92a5.251,5.251,0,0,0-1.271-.206c-1.374,0-2.027.824-2.027,1.443a1.2,1.2,0,0,0,.275.721c.447.515,1.2.481,2.473.687.756.1,1.511.275,2.267.447a3.836,3.836,0,0,1,2.92,2.1,3.811,3.811,0,0,1,.275,1.477,4.309,4.309,0,0,1-.55,2.13,5.464,5.464,0,0,1-4.294,2.508,8.915,8.915,0,0,1-1.374.1,7.475,7.475,0,0,1-5.118-1.649,7.081,7.081,0,0,1-1.065-1.134l2.576-1.615c.069.069.344.378.584.584a5.573,5.573,0,0,0,3.332,1.134,5.842,5.842,0,0,0,1.065-.137c.1-.034,1.443-.412,1.443-1.443,0-1.271-1.821-1.305-3.023-1.477-.653-.1-1.305-.206-1.924-.344A4.524,4.524,0,0,1,11.69,8.8a2.986,2.986,0,0,1-.584-1,4.065,4.065,0,0,1-.172-1.2c0-.1.034-.55.069-.962a3.744,3.744,0,0,1,1.168-2.2A5.947,5.947,0,0,1,16.431,2a8.05,8.05,0,0,1,4.5,1.34,14.674,14.674,0,0,1,1.615,1.271Zm8.107,10.409a4.367,4.367,0,0,1-1,1.889,2.618,2.618,0,0,1-2.1.756h-2.13V17.115H24.3c.687-.069.859-.378.859-.721a3.447,3.447,0,0,0-.206-.962,7.86,7.86,0,0,1-.275-.962L22.03,5.951h3.16l1.649,7.214,1.649-7.214h3.16L28.111,16.806Zm10.477-8a3.113,3.113,0,0,0-.55-.378,4.112,4.112,0,0,0-1.992-.618,2.66,2.66,0,0,0-.962.172.6.6,0,0,0-.447.584.548.548,0,0,0,.275.481,4.589,4.589,0,0,0,1.34.378l1.34.275c1.58.412,2.989,1.168,2.989,3.023A3.052,3.052,0,0,1,40.1,14.4a5.154,5.154,0,0,1-4.26,1.855,7.464,7.464,0,0,1-3.676-1,7.476,7.476,0,0,1-1.2-.962l1.889-1.683a3.677,3.677,0,0,0,.55.481,4.142,4.142,0,0,0,2.4.893,3.919,3.919,0,0,0,.721-.1c.447-.1,1.031-.344,1.031-.893-.034-.687-.893-.756-1.992-.962-2.1-.344-3.092-.824-3.607-1.821a2.851,2.851,0,0,1-.309-1.271,3.407,3.407,0,0,1,.412-1.511,4.133,4.133,0,0,1,3.847-1.889A7.525,7.525,0,0,1,39.55,6.5c.275.172.55.344.824.55L38.588,8.8ZM45.287,3v3.16h1.958V7.977H45.287v4.5a1.424,1.424,0,0,0,.069.824.8.8,0,0,0,.687.344c.344,0,.687-.034,1.031-.034v2.3a10.507,10.507,0,0,1-1.58.137,3.734,3.734,0,0,1-.618-.034,2.815,2.815,0,0,1-1.821-.618,3.234,3.234,0,0,1-.721-2.611V7.977H40.855V6.157h1.477V3h2.954Zm5.393,8.588a1.835,1.835,0,0,0,.034.584,2.232,2.232,0,0,0,2.267,1.924,3.3,3.3,0,0,0,.962-.172,3.1,3.1,0,0,0,1.58-1.615l2.233,1.168a13.091,13.091,0,0,1-.859,1.134,5.536,5.536,0,0,1-4.157,1.786,6.547,6.547,0,0,1-1.821-.275,4.821,4.821,0,0,1-3.3-4.947,6.263,6.263,0,0,1,1.305-3.951,5.328,5.328,0,0,1,7.832.206,7.644,7.644,0,0,1,1.134,4.122l-7.214.034ZM54.8,9.695a1.987,1.987,0,0,0-1.1-1.786A1.838,1.838,0,0,0,52.81,7.7a2.053,2.053,0,0,0-1.889,1.2,3.646,3.646,0,0,0-.206.756l4.088.034ZM73.49,16.016H70.536v-5.29a3.966,3.966,0,0,0-.275-2.061,1.34,1.34,0,0,0-1.134-.584,1.468,1.468,0,0,0-1.305.721,3.383,3.383,0,0,0-.206,1.752v5.5H64.662V10c-.034-.962-.137-1.374-.584-1.683a1.654,1.654,0,0,0-1.718,0c-.618.447-.618,1.271-.653,1.924v5.737h-2.92V5.916h2.92l.034,1.031a2.441,2.441,0,0,1,.515-.515,3.6,3.6,0,0,1,2.336-.79,4.233,4.233,0,0,1,1.992.481,7.944,7.944,0,0,1,.824.687,8.1,8.1,0,0,1,.721-.55A4.434,4.434,0,0,1,70.4,5.607a3.3,3.3,0,0,1,2.576,1.1c.481.584.515,1.237.515,2.679ZM78.162,2.378V13.13h5.325v2.886H74.761V2.378h3.4ZM93.174,14.436a2.641,2.641,0,0,0,.275,1.58h-2.92v-.893l-.618.412a4.408,4.408,0,0,1-2.473.756,3.145,3.145,0,0,1-2.989-1.649,3.276,3.276,0,0,1-.344-1.408,3.327,3.327,0,0,1,2.061-2.886,23.749,23.749,0,0,1,4.019-.962v-.55c-.034-.344-.069-1.2-1.134-1.2a1.533,1.533,0,0,0-1.443.721,1.729,1.729,0,0,0-.137.447H84.483a2.95,2.95,0,0,1,.824-2.027,4.113,4.113,0,0,1,2.267-1.031,10.831,10.831,0,0,1,1.305-.069c1.408,0,3.332.344,3.985,1.786A2.758,2.758,0,0,1,93.071,8.6v5.84ZM88.33,11.825a1.436,1.436,0,0,0-.344.137c-.721.309-.928.721-.928,1.134a1.551,1.551,0,0,0,.1.447,1.1,1.1,0,0,0,1.031.55,1.991,1.991,0,0,0,1.134-.412,2.759,2.759,0,0,0,.893-2.508l-1.889.653Zm9.138-4.981a3.336,3.336,0,0,1,.55-.515,3.721,3.721,0,0,1,2.336-.721,3.913,3.913,0,0,1,2.679,1,4.993,4.993,0,0,1,1.615,4.122,7.187,7.187,0,0,1-.618,3.126,4.123,4.123,0,0,1-3.779,2.37,3.818,3.818,0,0,1-2.37-.756,3.132,3.132,0,0,1-.584-.584l.1,1.065H94.548V2.378h2.886V6.844ZM97.4,10.9a5.278,5.278,0,0,0,.447,2.2,2.148,2.148,0,0,0,.584.653,2.107,2.107,0,0,0,1.2.378,1.879,1.879,0,0,0,1.58-.859,4.96,4.96,0,0,0,.55-2.37,4.96,4.96,0,0,0-.172-1.374A1.853,1.853,0,0,0,99.6,7.874c-1.168,0-2.2.756-2.2,3.023Zm14.909-2.1a3.113,3.113,0,0,0-.55-.378,4.112,4.112,0,0,0-1.992-.618,2.66,2.66,0,0,0-.962.172.6.6,0,0,0-.447.584.548.548,0,0,0,.275.481,4.589,4.589,0,0,0,1.34.378l1.34.275c1.58.412,2.989,1.168,2.989,3.023a3.052,3.052,0,0,1-.481,1.683,5.154,5.154,0,0,1-4.26,1.855,7.464,7.464,0,0,1-3.676-1,7.476,7.476,0,0,1-1.2-.962l1.889-1.683a3.677,3.677,0,0,0,.55.481,4.142,4.142,0,0,0,2.4.893,3.919,3.919,0,0,0,.721-.1c.447-.1,1.031-.344,1.031-.893-.034-.687-.893-.756-1.992-.962-2.1-.344-3.092-.824-3.607-1.821a2.851,2.851,0,0,1-.309-1.271,3.407,3.407,0,0,1,.412-1.511,4.133,4.133,0,0,1,3.847-1.889,7.525,7.525,0,0,1,3.641.962c.275.172.55.344.824.55L112.308,8.8Zm4.088,3.985a1.752,1.752,0,1,0,1.752,1.752A1.759,1.759,0,0,0,116.4,12.787Z" transform="translate(-1.9 -2)" fill="#fff"/></svg>